<?xml version="1.0" encoding="UTF-8"?><svg id="a" xmlns="http://www.w3.org/2000/svg" width="64" height="64" viewBox="0 0 64 64"><path d="M44.26,19.98v24.38h-24.54v-24.38h24.54M44.26,17.98h-24.54c-1.1,0-2,.9-2,2v24.38c0,1.1.9,2,2,2h24.54c1.1,0,2-.9,2-2v-24.38c0-1.1-.9-2-2-2h0Z"/><line x1="24.4" y1="18.61" x2="24.4" y2="11.85" fill="none" stroke="#000" stroke-miterlimit="10"/><line x1="39.5" y1="18.6" x2="39.5" y2="11.85" fill="none" stroke="#000" stroke-miterlimit="10"/><line x1="32" y1="19.36" x2="32" y2="5.31" fill="none" stroke="#000" stroke-miterlimit="10"/><path d="M24.49,8.46c.93,0,1.69.76,1.69,1.69s-.76,1.69-1.69,1.69-1.69-.76-1.69-1.69.76-1.69,1.69-1.69M24.49,7.71c-1.35,0-2.44,1.09-2.44,2.44s1.09,2.44,2.44,2.44,2.44-1.09,2.44-2.44-1.09-2.44-2.44-2.44h0Z"/><path d="M32.03,1.96c.93,0,1.69.76,1.69,1.69s-.76,1.69-1.69,1.69-1.69-.76-1.69-1.69.76-1.69,1.69-1.69M32.03,1.21c-1.35,0-2.44,1.09-2.44,2.44s1.09,2.44,2.44,2.44,2.44-1.09,2.44-2.44-1.09-2.44-2.44-2.44h0Z"/><path d="M39.5,8.47c.93,0,1.69.76,1.69,1.69s-.76,1.69-1.69,1.69-1.69-.76-1.69-1.69.76-1.69,1.69-1.69M39.5,7.72c-1.35,0-2.44,1.09-2.44,2.44s1.09,2.44,2.44,2.44,2.44-1.09,2.44-2.44-1.09-2.44-2.44-2.44h0Z"/><line x1="18.34" y1="39.7" x2="11.59" y2="39.7" fill="none" stroke="#000" stroke-miterlimit="10"/><line x1="18.33" y1="24.6" x2="11.58" y2="24.6" fill="none" stroke="#000" stroke-miterlimit="10"/><line x1="19.09" y1="32.11" x2="5.04" y2="32.11" fill="none" stroke="#000" stroke-miterlimit="10"/><path d="M9.88,37.92c.93,0,1.69.76,1.69,1.69s-.76,1.69-1.69,1.69-1.69-.76-1.69-1.69.76-1.69,1.69-1.69M9.88,37.17c-1.35,0-2.44,1.09-2.44,2.44s1.09,2.44,2.44,2.44,2.44-1.09,2.44-2.44-1.09-2.44-2.44-2.44h0Z"/><path d="M3.38,30.38c.93,0,1.69.76,1.69,1.69s-.76,1.69-1.69,1.69-1.69-.76-1.69-1.69.76-1.69,1.69-1.69M3.38,29.63c-1.35,0-2.44,1.09-2.44,2.44s1.09,2.44,2.44,2.44,2.44-1.09,2.44-2.44-1.09-2.44-2.44-2.44h0Z"/><path d="M9.89,22.91c.93,0,1.69.76,1.69,1.69s-.76,1.69-1.69,1.69-1.69-.76-1.69-1.69.76-1.69,1.69-1.69M9.89,22.16c-1.35,0-2.44,1.09-2.44,2.44s1.09,2.44,2.44,2.44,2.44-1.09,2.44-2.44-1.09-2.44-2.44-2.44h0Z"/><line x1="45.56" y1="39.82" x2="52.31" y2="39.82" fill="none" stroke="#000" stroke-miterlimit="10"/><line x1="45.56" y1="24.72" x2="52.31" y2="24.72" fill="none" stroke="#000" stroke-miterlimit="10"/><line x1="44.81" y1="32.23" x2="58.86" y2="32.23" fill="none" stroke="#000" stroke-miterlimit="10"/><path d="M54.02,38.04c.93,0,1.69.76,1.69,1.69s-.76,1.69-1.69,1.69-1.69-.76-1.69-1.69.76-1.69,1.69-1.69M54.02,37.29c-1.35,0-2.44,1.09-2.44,2.44s1.09,2.44,2.44,2.44,2.44-1.09,2.44-2.44-1.09-2.44-2.44-2.44h0Z"/><path d="M60.51,30.5c.93,0,1.69.76,1.69,1.69s-.76,1.69-1.69,1.69-1.69-.76-1.69-1.69.76-1.69,1.69-1.69M60.51,29.75c-1.35,0-2.44,1.09-2.44,2.44s1.09,2.44,2.44,2.44,2.44-1.09,2.44-2.44-1.09-2.44-2.44-2.44h0Z"/><path d="M54,23.03c.93,0,1.69.76,1.69,1.69s-.76,1.69-1.69,1.69-1.69-.76-1.69-1.69.76-1.69,1.69-1.69M54,22.28c-1.35,0-2.44,1.09-2.44,2.44s1.09,2.44,2.44,2.44,2.44-1.09,2.44-2.44-1.09-2.44-2.44-2.44h0Z"/><line x1="24.37" y1="45.7" x2="24.37" y2="52.45" fill="none" stroke="#000" stroke-miterlimit="10"/><line x1="39.47" y1="45.7" x2="39.47" y2="52.45" fill="none" stroke="#000" stroke-miterlimit="10"/><line x1="31.97" y1="44.95" x2="31.97" y2="58.99" fill="none" stroke="#000" stroke-miterlimit="10"/><path d="M24.46,52.46c.93,0,1.69.76,1.69,1.69s-.76,1.69-1.69,1.69-1.69-.76-1.69-1.69.76-1.69,1.69-1.69M24.46,51.71c-1.35,0-2.44,1.09-2.44,2.44s1.09,2.44,2.44,2.44,2.44-1.09,2.44-2.44-1.09-2.44-2.44-2.44h0Z"/><path d="M32,58.96c.93,0,1.69.76,1.69,1.69s-.76,1.69-1.69,1.69-1.69-.76-1.69-1.69.76-1.69,1.69-1.69M32,58.21c-1.35,0-2.44,1.09-2.44,2.44s1.09,2.44,2.44,2.44,2.44-1.09,2.44-2.44-1.09-2.44-2.44-2.44h0Z"/><path d="M39.47,52.45c.93,0,1.69.76,1.69,1.69s-.76,1.69-1.69,1.69-1.69-.76-1.69-1.69.76-1.69,1.69-1.69M39.47,51.7c-1.35,0-2.44,1.09-2.44,2.44s1.09,2.44,2.44,2.44,2.44-1.09,2.44-2.44-1.09-2.44-2.44-2.44h0Z"/><path d="M25.86,36.23l3.06-8.4h2.24l2.99,8.4h-2.06l-.57-1.75h-3.05l-.56,1.75h-2.05ZM28.89,33h2.2l-.93-2.92c-.04-.12-.06-.22-.08-.3s-.04-.19-.06-.32h-.05c-.02.12-.04.22-.06.3s-.05.18-.08.29l-.94,2.94Z"/><path d="M37.1,36.23h-1.89v-8.4h1.89v8.4Z"/></svg>