<?xml version="1.0" encoding="UTF-8"?><svg id="a" xmlns="http://www.w3.org/2000/svg" width="64" height="64" viewBox="0 0 64 64"><path d="M17.67,20.09c-6.62,0-11.98,5.37-11.98,12s4.36,11.98,10.98,11.98,12.98-5.36,12.98-11.98-5.36-12-11.98-12ZM24.43,36.55l-2.29,2.29-4.49-4.49-4.45,4.45-2.29-2.29,4.45-4.45-4.45-4.45,2.29-2.27,4.45,4.43,4.49-4.49,2.29,2.29-4.49,4.49,4.49,4.49ZM47,18.57c7.49,0,13.59,6.09,13.59,13.59s-6.09,13.59-13.59,13.59h-30.1c-7.49,0-13.59-6.09-13.59-13.59s6.09-13.59,14.59-13.59h30.1M47,15.76h-30.1C7.85,15.76.51,23.1.51,32.15h0c0,9.05,7.34,16.39,16.39,16.39h30.1c9.05,0,16.39-7.34,16.39-16.39h0c0-9.05-7.34-16.39-16.39-16.39h0Z"/></svg>