<?xml version="1.0" encoding="UTF-8"?><svg id="a" xmlns="http://www.w3.org/2000/svg" width="64" height="64" viewBox="0 0 64 64"><path d="M46.16,20.27c-6.56,0-11.87,5.32-11.87,11.89s5.31,11.87,11.87,11.87,11.87-5.31,11.87-11.87-5.31-11.89-11.87-11.89ZM47.26,36.23l-2.22,2.22-.04.04-6.42-6.41,2.27-2.27,4.16,4.14,6.83-6.83,2.27,2.27-6.83,6.83ZM46.86,18.69c7.42,0,13.46,6.04,13.46,13.46s-6.04,13.46-13.46,13.46h-29.82c-7.42,0-13.46-6.04-13.46-13.46s6.04-13.46,13.46-13.46h29.82M46.86,15.91h-29.82C8.07,15.91.8,23.18.8,32.15h0c0,8.97,7.27,16.24,16.24,16.24h29.82c8.97,0,16.24-7.27,16.24-16.24h0c0-8.97-7.27-16.24-16.24-16.24h0Z"/></svg>