<?xml version="1.0" encoding="UTF-8"?><svg id="a" xmlns="http://www.w3.org/2000/svg" width="64" height="64" viewBox="0 0 64 64"><path d="M56.08,37.65v17.95c0,3.16-2.56,5.71-5.71,5.71H8.37c-3.16,0-5.72-2.56-5.72-5.71V8.72c0-3.16,2.56-5.72,5.72-5.72h33.06c1.68,0,3.27.74,4.36,2.02l8.94,10.54c.55.65.95,1.42,1.17,2.24.12.47.19.97.19,1.47v3.3" fill="none" stroke="#000" stroke-miterlimit="10" stroke-width="2"/><path d="M40.78,3v5.81c.02,4.98,4.07,9.01,9.05,9h6.25" fill="none" stroke="#000" stroke-miterlimit="10" stroke-width="2"/><path d="M56.88,23.22l2.66,2.66c2.28,2.28,2.29,5.98.02,8.27l-19.74,19.89c-1.1,1.11-2.6,1.73-4.16,1.73h-8.13l.15-9c.03-1.5.63-2.94,1.68-4.01l19.2-19.5c2.28-2.32,6.01-2.33,8.31-.03Z" fill="none" stroke="#000" stroke-miterlimit="10" stroke-width="2"/><line x1="45.16" y1="26.87" x2="55.73" y2="37.4" fill="none" stroke="#000" stroke-miterlimit="10" stroke-width="2"/></svg>