<?xml version="1.0" encoding="UTF-8"?><svg id="a" xmlns="http://www.w3.org/2000/svg" width="64" height="64" viewBox="0 0 64 64"><path d="M17.05,6.25v38.65c0,2.6,2.11,4.72,4.72,4.72h34.63c2.6,0,4.72-2.11,4.72-4.72V14.93c0-1.12-.4-2.2-1.12-3.05l-7.37-8.69c-.9-1.06-2.21-1.67-3.6-1.67h-27.26c-2.6,0-4.72,2.11-4.72,4.72Z" fill="none" stroke="#000" stroke-miterlimit="10" stroke-width="2"/><path d="M48.5,1.53v4.79c.02,4.11,3.36,7.43,7.46,7.42h5.15" fill="none" stroke="#000" stroke-miterlimit="10" stroke-width="2"/><path d="M17.82,14.69h-6.79c-4.56,0-8.25,3.7-8.25,8.25v31.58c0,4.56,3.69,8.25,8.25,8.25h26.08c4.56,0,8.25-3.69,8.25-8.25v-4.9" fill="none" stroke="#000" stroke-miterlimit="10" stroke-width="2"/></svg>