<?xml version="1.0" encoding="UTF-8"?><svg id="a" xmlns="http://www.w3.org/2000/svg" width="64" height="64" viewBox="0 0 64 64"><path d="M3.2,7.42v49.47c0,3.33,2.7,6.03,6.03,6.03h44.32c3.33,0,6.03-2.7,6.03-6.03V18.54c0-1.43-.51-2.81-1.43-3.9l-9.43-11.12c-1.15-1.35-2.83-2.13-4.6-2.13H9.24c-3.33,0-6.03,2.7-6.03,6.03Z" fill="none" stroke="#000" stroke-miterlimit="10" stroke-width="2"/><path d="M43.45,1.38v6.13c.03,5.26,4.3,9.51,9.55,9.5l6.59-.02" fill="none" stroke="#000" stroke-miterlimit="10" stroke-width="2"/><path d="M20.82,46.37v-1.93c0-1.31.22-2.48.66-3.52s.99-1.98,1.66-2.81c.67-.82,1.39-1.55,2.19-2.19.79-.64,1.54-1.21,2.26-1.72.75-.52,1.4-1.03,1.95-1.51.55-.48,1.04-.95,1.46-1.4.44-.48.76-.98.95-1.51.2-.53.29-1.15.29-1.86,0-.87-.28-1.6-.83-2.19s-1.37-.88-2.44-.88c-.69,0-1.57.18-2.64.54-1.07.36-2.12.92-3.14,1.7l-2.71-3.59c1.44-1.08,2.91-1.88,4.42-2.38s3.16-.76,4.97-.76c2.45,0,4.4.66,5.85,1.99,1.45,1.33,2.17,2.94,2.17,4.85,0,1.5-.18,2.7-.54,3.61s-.85,1.73-1.45,2.46c-.6.75-1.29,1.44-2.07,2.06-.79.62-1.6,1.23-2.45,1.81-.57.4-1.12.81-1.65,1.21-.53.4-1,.79-1.4,1.17-.4.39-.73.77-.96,1.14-.24.37-.36.72-.36,1.05h10.85v4.68h-17.03Z"/></svg>