<?xml version="1.0" encoding="UTF-8"?><svg id="a" xmlns="http://www.w3.org/2000/svg" width="64" height="64" viewBox="0 0 64 64"><path d="M3.75,7.42v49.47c0,3.33,2.7,6.03,6.03,6.03h44.32c3.33,0,6.03-2.7,6.03-6.03V18.54c0-1.43-.51-2.81-1.43-3.9l-9.43-11.12c-1.15-1.35-2.83-2.13-4.6-2.13H9.79c-3.33,0-6.03,2.7-6.03,6.03Z" fill="none" stroke="#000" stroke-miterlimit="10" stroke-width="2"/><path d="M44,1.38v6.13c.03,5.26,4.3,9.51,9.55,9.5l6.59-.02" fill="none" stroke="#000" stroke-miterlimit="10" stroke-width="2"/><path d="M19.84,31.99l7.95,8.25c1.25,1.3,3.32,1.32,4.59.05l17.72-17.6" fill="none" stroke="#000" stroke-miterlimit="10" stroke-width="2"/><path d="M39.16,39.39h0c0,4.13-3.35,7.48-7.48,7.48h-7.96c-4.13,0-7.48-3.35-7.48-7.48v-5.92c0-4.13,3.35-7.48,7.48-7.48h12.59" fill="none" stroke="#000" stroke-miterlimit="10" stroke-width="2"/></svg>