<?xml version="1.0" encoding="UTF-8"?><svg id="a" xmlns="http://www.w3.org/2000/svg" width="64" height="64" viewBox="0 0 64 64"><path d="M3.75,7.42v49.47c0,3.33,2.7,6.03,6.03,6.03h44.32c3.33,0,6.03-2.7,6.03-6.03V18.54c0-1.43-.51-2.81-1.43-3.9l-9.43-11.12c-1.15-1.35-2.83-2.13-4.6-2.13H9.79c-3.33,0-6.03,2.7-6.03,6.03Z" fill="none" stroke="#000" stroke-miterlimit="10" stroke-width="2"/><path d="M44,1.38v6.13c.03,5.26,4.3,9.51,9.55,9.5l6.59-.02" fill="none" stroke="#000" stroke-miterlimit="10" stroke-width="2"/><path d="M23.99,20.84c-.55,1.08-.86,2.31-.86,3.62,0,1.12.23,2.18.65,3.14,1.21,2.84,4.04,4.83,7.32,4.83s6.12-1.99,7.33-4.83c.42-.96.65-2.02.65-3.14,0-1.31-.31-2.54-.87-3.62" fill="none" stroke="#000" stroke-miterlimit="10" stroke-width="2"/><path d="M38.42,44.78c.4-.94.61-1.97.61-3.05,0-4.41-3.57-7.98-7.98-7.98s-7.98,3.57-7.98,7.98c0,1.08.21,2.11.61,3.05" fill="none" stroke="#000" stroke-miterlimit="10" stroke-width="2"/><line x1="20.94" y1="20.84" x2="40.89" y2="20.84" fill="none" stroke="#000" stroke-miterlimit="10" stroke-width="2"/><line x1="20.91" y1="44.59" x2="40.87" y2="44.59" fill="none" stroke="#000" stroke-miterlimit="10" stroke-width="2"/><line x1="38.43" y1="27.6" x2="23.78" y2="27.6" fill="none" stroke="#000" stroke-miterlimit="10" stroke-width="2"/><path d="M37.6,44.76c.03-.17.04-.35.04-.53,0-2.28-4.34-4.3-6.62-4.3s-7.25,2.34-7.25,4.62c0,.18.01.36.04.53" fill="none" stroke="#000" stroke-miterlimit="10" stroke-width="2"/></svg>