<?xml version="1.0" encoding="UTF-8"?><svg id="a" xmlns="http://www.w3.org/2000/svg" width="64" height="64" viewBox="0 0 64 64"><path d="M3.2,7.42v49.47c0,3.33,2.7,6.03,6.03,6.03h44.32c3.33,0,6.03-2.7,6.03-6.03V18.54c0-1.43-.51-2.81-1.43-3.9l-9.43-11.12c-1.15-1.35-2.83-2.13-4.6-2.13H9.24c-3.33,0-6.03,2.7-6.03,6.03Z" fill="none" stroke="#000" stroke-miterlimit="10" stroke-width="2"/><path d="M43.45,1.38v6.13c.03,5.26,4.3,9.51,9.55,9.5l6.59-.02" fill="none" stroke="#000" stroke-miterlimit="10" stroke-width="2"/><path d="M21.51,44.67l2.16-3.75c.95.55,1.79.95,2.52,1.2s1.63.38,2.71.38c1.44,0,2.5-.34,3.18-1.02.68-.68,1.02-1.46,1.02-2.36,0-1.24-.5-2.17-1.49-2.78-.99-.62-2.36-.93-4.1-.93h-2.09v-4.32h1.91c1.67,0,2.92-.28,3.75-.83.83-.55,1.25-1.48,1.25-2.78,0-.94-.26-1.65-.79-2.12-.52-.48-1.29-.71-2.28-.71-.71,0-1.51.13-2.37.38-.87.26-1.79.66-2.77,1.22l-2.03-3.73c1.32-.77,2.61-1.33,3.87-1.67,1.26-.34,2.66-.51,4.19-.51,2.36,0,4.27.59,5.73,1.77,1.46,1.18,2.2,2.71,2.2,4.59,0,1.57-.36,2.88-1.09,3.93s-1.82,1.83-3.28,2.36v.09c1.58.3,2.83.99,3.76,2.08.92,1.09,1.38,2.39,1.38,3.9,0,2.26-.84,4.12-2.52,5.58-1.68,1.46-3.95,2.19-6.82,2.19-1.5,0-2.88-.17-4.15-.51-1.27-.34-2.55-.88-3.85-1.63Z"/></svg>