<?xml version="1.0" encoding="UTF-8"?><svg id="a" xmlns="http://www.w3.org/2000/svg" width="64" height="64" viewBox="0 0 64 64"><path d="M2.81,49.72h58.27c1.13,0,1.82-1.23,1.25-2.19l-3.45-3.41c-3.67-3.49-3.82-11.89-3.82-17.73v-.16c0-11.34-7.88-21.53-19.06-23.41-1.23-.21-2.49-.32-3.77-.34-.64,0-1.28,0-1.91.05-12.21.81-21.41,11.54-21.41,23.77h0c0,5.86.09,13.1-3.24,17.65l-4.1,3.57c-.58.97.12,2.2,1.25,2.2Z" fill="none" stroke="#000" stroke-miterlimit="10" stroke-width="2"/><path d="M44.26,49.71v.25c0,6.54-5.32,11.86-11.86,11.86s-11.86-5.32-11.86-11.86v-.25" fill="none" stroke="#000" stroke-miterlimit="10" stroke-width="2"/></svg>