<?xml version="1.0" encoding="UTF-8"?><svg id="a" xmlns="http://www.w3.org/2000/svg" width="64" height="64" viewBox="0 0 64 64"><path d="M.32,41.36l8.21-22.55h6.02l8.02,22.55h-5.54l-1.53-4.7H7.34l-1.51,4.7H.32ZM8.44,32.7h5.9l-2.48-7.83c-.09-.31-.17-.58-.23-.8-.06-.22-.11-.5-.15-.85h-.13c-.05.31-.11.59-.17.82-.06.23-.13.49-.23.77l-2.52,7.9Z"/><path d="M25.39,41.36v-22.55h8.21c2.52,0,4.45.48,5.8,1.43s2.03,2.3,2.03,4.04c0,1.21-.36,2.26-1.09,3.17-.72.91-1.65,1.54-2.77,1.9v.06c1.45.19,2.6.76,3.46,1.72.86.96,1.29,2.13,1.29,3.5,0,2.07-.74,3.7-2.22,4.92s-3.5,1.82-6.05,1.82h-8.67ZM30.47,22.55v5.5h2.23c1.05,0,1.87-.25,2.48-.75.6-.5.9-1.19.9-2.08s-.31-1.56-.93-2.01c-.62-.45-1.55-.67-2.78-.67h-1.9ZM30.47,31.83v5.79h2.75c1.17,0,2.09-.27,2.76-.82s1-1.29,1-2.23c0-.85-.33-1.52-.98-2-.66-.49-1.57-.73-2.74-.73h-2.78Z"/><path d="M63,40.26c-1.19.52-2.33.9-3.44,1.14-1.11.24-2.31.35-3.6.35-3.51,0-6.28-.98-8.3-2.95-2.02-1.97-3.03-4.78-3.03-8.44,0-3.43,1.1-6.27,3.3-8.54,2.2-2.26,5.11-3.4,8.71-3.4,1.21,0,2.28.08,3.23.25.95.17,1.94.44,2.96.82l-1.49,4.1c-.78-.28-1.52-.49-2.23-.61-.71-.13-1.48-.19-2.31-.19-1.84,0-3.44.65-4.8,1.94s-2.03,3.05-2.03,5.26.59,4.07,1.77,5.36c1.18,1.29,2.8,1.93,4.85,1.93.54,0,1.21-.09,2.04-.26.82-.17,1.67-.46,2.56-.86l1.81,4.07Z"/></svg>