<?xml version="1.0" encoding="UTF-8"?><svg id="a" xmlns="http://www.w3.org/2000/svg" width="64" height="64" viewBox="0 0 64 64"><rect x="1.42" y="6.21" width="61.06" height="55.73" rx="3.53" ry="3.53" fill="none" stroke="#000" stroke-miterlimit="10" stroke-width="2"/><path d="M9.75,13.27h0c-1.14,0-2.07-.93-2.07-2.07V3.47c0-1.14.93-2.07,2.07-2.07h0c1.14,0,2.07.93,2.07,2.07v7.73c0,1.14-.93,2.07-2.07,2.07ZM22.69,11.27V3.53c0-1.14-.93-2.07-2.07-2.07h0c-1.14,0-2.07.93-2.07,2.07v7.73c0,1.14.93,2.07,2.07,2.07h0c1.14,0,2.07-.93,2.07-2.07ZM33.59,11.2V3.47c0-1.14-.93-2.07-2.07-2.07h0c-1.14,0-2.07.93-2.07,2.07v7.73c0,1.14.93,2.07,2.07,2.07h0c1.14,0,2.07-.93,2.07-2.07ZM44.39,11.27V3.53c0-1.14-.93-2.07-2.07-2.07h0c-1.14,0-2.07.93-2.07,2.07v7.73c0,1.14.93,2.07,2.07,2.07h0c1.14,0,2.07-.93,2.07-2.07ZM55.33,11.17V3.44c0-1.14-.93-2.07-2.07-2.07h0c-1.14,0-2.07.93-2.07,2.07v7.73c0,1.14.93,2.07,2.07,2.07h0c1.14,0,2.07-.93,2.07-2.07Z"/><line x1="1.42" y1="19.58" x2="62.48" y2="19.58" fill="none" stroke="#000" stroke-miterlimit="10" stroke-width="2"/><path d="M15.74,28.03h-2.82c-.24,0-.43-.19-.43-.43v-2.94c0-.24.19-.43.43-.43h2.82c.24,0,.43.19.43.43v2.94c0,.24-.19.43-.43.43ZM24.72,27.52v-2.94c0-.24-.19-.43-.43-.43h-2.82c-.24,0-.43.19-.43.43v2.94c0,.24.19.43.43.43h2.82c.24,0,.43-.19.43-.43ZM33.36,27.67v-2.94c0-.24-.19-.43-.43-.43h-2.82c-.24,0-.43.19-.43.43v2.94c0,.24.19.43.43.43h2.82c.24,0,.43-.19.43-.43ZM41.9,27.62v-2.94c0-.24-.19-.43-.43-.43h-2.82c-.24,0-.43.19-.43.43v2.94c0,.24.19.43.43.43h2.82c.24,0,.43-.19.43-.43ZM50.83,27.62v-2.94c0-.24-.19-.43-.43-.43h-2.82c-.24,0-.43.19-.43.43v2.94c0,.24.19.43.43.43h2.82c.24,0,.43-.19.43-.43ZM16.1,36.99v-2.94c0-.24-.19-.43-.43-.43h-2.82c-.24,0-.43.19-.43.43v2.94c0,.24.19.43.43.43h2.82c.24,0,.43-.19.43-.43ZM24.65,36.92v-2.94c0-.24-.19-.43-.43-.43h-2.82c-.24,0-.43.19-.43.43v2.94c0,.24.19.43.43.43h2.82c.24,0,.43-.19.43-.43ZM33.29,37.06v-2.94c0-.24-.19-.43-.43-.43h-2.82c-.24,0-.43.19-.43.43v2.94c0,.24.19.43.43.43h2.82c.24,0,.43-.19.43-.43ZM41.83,37.01v-2.94c0-.24-.19-.43-.43-.43h-2.82c-.24,0-.43.19-.43.43v2.94c0,.24.19.43.43.43h2.82c.24,0,.43-.19.43-.43ZM50.76,37.01v-2.94c0-.24-.19-.43-.43-.43h-2.82c-.24,0-.43.19-.43.43v2.94c0,.24.19.43.43.43h2.82c.24,0,.43-.19.43-.43ZM16.2,46.21v-2.94c0-.24-.19-.43-.43-.43h-2.82c-.24,0-.43.19-.43.43v2.94c0,.24.19.43.43.43h2.82c.24,0,.43-.19.43-.43ZM24.75,46.14v-2.94c0-.24-.19-.43-.43-.43h-2.82c-.24,0-.43.19-.43.43v2.94c0,.24.19.43.43.43h2.82c.24,0,.43-.19.43-.43ZM33.39,46.29v-2.94c0-.24-.19-.43-.43-.43h-2.82c-.24,0-.43.19-.43.43v2.94c0,.24.19.43.43.43h2.82c.24,0,.43-.19.43-.43ZM41.93,46.24v-2.94c0-.24-.19-.43-.43-.43h-2.82c-.24,0-.43.19-.43.43v2.94c0,.24.19.43.43.43h2.82c.24,0,.43-.19.43-.43ZM50.86,46.24v-2.94c0-.24-.19-.43-.43-.43h-2.82c-.24,0-.43.19-.43.43v2.94c0,.24.19.43.43.43h2.82c.24,0,.43-.19.43-.43ZM16.1,54.12v-2.94c0-.24-.19-.43-.43-.43h-2.82c-.24,0-.43.19-.43.43v2.94c0,.24.19.43.43.43h2.82c.24,0,.43-.19.43-.43ZM24.65,54.05v-2.94c0-.24-.19-.43-.43-.43h-2.82c-.24,0-.43.19-.43.43v2.94c0,.24.19.43.43.43h2.82c.24,0,.43-.19.43-.43ZM33.29,54.19v-2.94c0-.24-.19-.43-.43-.43h-2.82c-.24,0-.43.19-.43.43v2.94c0,.24.19.43.43.43h2.82c.24,0,.43-.19.43-.43ZM41.83,54.14v-2.94c0-.24-.19-.43-.43-.43h-2.82c-.24,0-.43.19-.43.43v2.94c0,.24.19.43.43.43h2.82c.24,0,.43-.19.43-.43ZM50.76,54.14v-2.94c0-.24-.19-.43-.43-.43h-2.82c-.24,0-.43.19-.43.43v2.94c0,.24.19.43.43.43h2.82c.24,0,.43-.19.43-.43Z"/><rect x="8.41" y="30.76" width="46.26" height="9.57" rx=".77" ry=".77" fill="none" stroke="#000" stroke-miterlimit="10" stroke-width="2"/></svg>