<?xml version="1.0" encoding="UTF-8"?><svg id="a" xmlns="http://www.w3.org/2000/svg" width="64" height="64" viewBox="0 0 64 64"><path d="M61.68,25.21l-28.92-14.58c-.51-.25-1.1-.26-1.61,0L2.13,25.2c-.6.3-.99.92-.99,1.6h0c0,.68.38,1.29.98,1.6l29.04,14.64c.5.25,1.1.26,1.6,0l28.92-14.44c.62-.31,1.01-.96.99-1.66v-.19c-.03-.65-.4-1.25-.99-1.54ZM30.9,38.13l-19.6-9.98c-1.3-.66-1.3-2.52,0-3.19l19.83-10.11c.52-.26,1.14-.26,1.65.01l19.7,10.45c1.29.69,1.26,2.55-.06,3.19l-19.93,9.63c-.5.24-1.09.24-1.59-.02Z"/><polygon points="55.6 26.98 31.69 38.54 8.17 26.56 31.96 14.44 55.6 26.98" fill="none"/><polygon points="55.6 26.98 31.69 38.54 8.17 26.56 31.96 14.44 55.6 26.98" fill="none"/><rect x="58.31" y="26.07" width="4.45" height="21.59" rx="2.22" ry="2.22"/><path d="M14.66,32.16h0c.78.33,1.28,1.09,1.28,1.94v7.61c0,.86.52,1.63,1.32,1.95l13.93,5.55c.5.2,1.06.2,1.56,0l13.73-5.54c.79-.32,1.32-1.09,1.32-1.95v-7.81c0-.74.39-1.43,1.03-1.81l.16-.1c1.4-.83,3.17.18,3.17,1.81v10.39c0,.85-.51,1.61-1.29,1.94l-18.1,7.58c-.51.21-1.09.22-1.6,0l-18.13-7.36c-.79-.32-1.31-1.09-1.31-1.95v-10.32c0-1.51,1.54-2.52,2.92-1.94Z"/></svg>