<?xml version="1.0" encoding="UTF-8"?><svg id="a" xmlns="http://www.w3.org/2000/svg" width="64" height="64" viewBox="0 0 64 64"><path d="M.72,62.19v-4.17c0-3.5,2.84-6.33,6.33-6.33h5.43c3.5,0,6.33,2.84,6.33,6.33v4.17" fill="none" stroke="#000" stroke-miterlimit="10"/><path d="M22.56,62.25v-4.17c0-3.5,2.84-6.33,6.33-6.33h5.43c3.5,0,6.33,2.84,6.33,6.33v4.17" fill="none" stroke="#000" stroke-miterlimit="10"/><path d="M45.07,62.14v-4.17c0-3.5,2.84-6.33,6.33-6.33h5.43c3.5,0,6.33,2.84,6.33,6.33v4.17" fill="none" stroke="#000" stroke-miterlimit="10"/><path d="M4.31,50.02v-1.19c0-2.78,2.52-5.04,5.63-5.04h4.82c3.11,0,5.62,2.26,5.62,5.04l.07,4.53" fill="none" stroke="#000" stroke-miterlimit="10"/><path d="M23.77,51.69l-.02-2.34c0-3.08,2.5-5.58,5.58-5.58h4.78c3.08,0,5.58,2.5,5.58,5.58v2.34" fill="none" stroke="#000" stroke-miterlimit="10"/><path d="M59.58,50.19v-1.19c0-2.78-2.52-5.04-5.63-5.04h-4.82c-3.11,0-5.62,2.26-5.62,5.04l-.07,4.53" fill="none" stroke="#000" stroke-miterlimit="10"/><path d="M25.13,43.97l-.02-1.96c0-2.58,2.09-4.67,4.67-4.67h4.01c2.58,0,4.67,2.09,4.67,4.67v1.96" fill="none" stroke="#000" stroke-miterlimit="10"/><path d="M55.13,42.72v-1c0-2.33-2.11-4.22-4.71-4.22h-4.04c-2.6,0-4.71,1.89-4.71,4.22l-.06,3.8" fill="none" stroke="#000" stroke-miterlimit="10"/><rect x="2.75" y="30.5" width="58.29" height="2.39"/><path d="M59.29,3.55c.36,0,.66.3.66.66v23.89c0,.36-.3.66-.66.66H4.49c-.36,0-.66-.3-.66-.66V4.21c0-.36.3-.66.66-.66h54.8M59.29,2.55H4.49c-.92,0-1.66.74-1.66,1.66v23.89c0,.92.74,1.66,1.66,1.66h54.8c.92,0,1.66-.74,1.66-1.66V4.21c0-.92-.74-1.66-1.66-1.66h0Z"/><rect x="5.16" y="27.33" width="6.12" height="1.66" rx=".22" ry=".22"/><path d="M32.05,7.81h-4.88c-1.67,0-3.02,1.35-3.02,3.02v11.41c0,1.67,1.35,3.02,3.02,3.02h9.09c1.67,0,3.02-1.35,3.02-3.02v-6.4" fill="none" stroke="#000" stroke-miterlimit="10" stroke-width="1.5"/><path d="M38,8.99l.92.92c.79.79.79,2.06,0,2.85l-6.81,6.86c-.38.38-.9.6-1.43.6h-2.81l.05-3.11c0-.52.22-1.01.58-1.38l6.63-6.73c.79-.8,2.08-.8,2.87-.01Z" fill="none" stroke="#000" stroke-miterlimit="10" stroke-width="1.5"/><line x1="33.96" y1="10.25" x2="37.61" y2="13.88" fill="none" stroke="#000" stroke-miterlimit="10" stroke-width="1.5"/></svg>