<?xml version="1.0" encoding="UTF-8"?><svg id="a" xmlns="http://www.w3.org/2000/svg" width="64" height="64" viewBox="0 0 64 64"><path d="M9.53,61.29h44.83c4.51,0,8.16-3.66,8.16-8.16v-24.43c0-2.53-1.17-4.92-3.18-6.46L36.65,4.71c-2.97-2.29-7.11-2.27-10.05.05L4.48,22.24c-1.96,1.55-3.11,3.91-3.11,6.41v24.48c0,4.51,3.66,8.16,8.16,8.16Z" fill="none" stroke="#000" stroke-miterlimit="10" stroke-width="2"/><path d="M31.91,22.72h-8.81c-3.01,0-5.45,2.44-5.45,5.45v20.61c0,3.01,2.44,5.45,5.45,5.45h16.41c3.01,0,5.45-2.44,5.45-5.45v-11.56" fill="none" stroke="#000" stroke-miterlimit="10" stroke-width="2"/><path d="M42.66,24.84l1.66,1.66c1.42,1.42,1.43,3.73,0,5.15l-12.3,12.39c-.69.69-1.62,1.08-2.59,1.08h-5.07l.1-5.61c.02-.94.39-1.83,1.05-2.5l11.97-12.15c1.42-1.44,3.75-1.45,5.18-.02Z" fill="none" stroke="#000" stroke-miterlimit="10" stroke-width="2"/><line x1="35.36" y1="27.12" x2="41.95" y2="33.68" fill="none" stroke="#000" stroke-miterlimit="10" stroke-width="2"/></svg>