<?xml version="1.0" encoding="UTF-8"?><svg id="a" xmlns="http://www.w3.org/2000/svg" width="64" height="64" viewBox="0 0 64 64"><path d="M38.97,1.34h-14.91c-5.1,0-9.23,4.13-9.23,9.23v34.89c0,5.1,4.13,9.23,9.23,9.23h27.79c5.1,0,9.23-4.13,9.23-9.23v-19.58" fill="none" stroke="#000" stroke-miterlimit="10" stroke-width="2"/><path d="M57.17,4.93l2.81,2.81c2.41,2.41,2.41,6.31.02,8.72l-20.83,20.99c-1.16,1.17-2.74,1.83-4.39,1.83h-8.58l.16-9.5c.03-1.59.66-3.1,1.78-4.23L48.39,4.97c2.41-2.45,6.35-2.46,8.77-.03Z" fill="none" stroke="#000" stroke-miterlimit="10" stroke-width="2"/><line x1="44.8" y1="8.79" x2="55.96" y2="19.9" fill="none" stroke="#000" stroke-miterlimit="10" stroke-width="2"/><path d="M14.87,9.61h-3.53c-5.11,0-9.24,4.13-9.24,9.24v34.9c0,5.08,4.13,9.21,9.24,9.21h27.8c4.76,0,8.68-3.62,9.17-8.26" fill="none" stroke="#000" stroke-miterlimit="10" stroke-width="2"/></svg>