<?xml version="1.0" encoding="UTF-8"?><svg id="a" xmlns="http://www.w3.org/2000/svg" width="64" height="64" viewBox="0 0 64 64"><circle cx="32.61" cy="32.77" r="9.05" fill="none" stroke="#000" stroke-miterlimit="10" stroke-width="2"/><path d="M30.02,62.72h3.61c2.82,0,5.24-1.8,6.3-4.42.68-1.68,1.87-3.51,3.94-4.86,2.34-1.52,5.18-2.02,7.89-1.49s5.34-.95,6.7-3.3l1.13-1.96c1.39-2.41,1.04-5.34-.61-7.58-1.33-1.8-2.07-4-2.03-6.28.04-2.46.98-4.79,2.56-6.61,1.95-2.24,2.48-5.37,1-7.94l-1.19-2.06c-1.4-2.43-4.16-3.72-6.92-3.24s-5.56-.07-7.9-1.62c-2.19-1.45-3.39-3.41-4.06-5.2-1-2.71-3.47-4.59-6.36-4.59h-3.41c-3.14,0-6.07,2.03-6.76,5.09-.46,2.03-1.5,3.88-3.06,5.24-2.38,2.09-5.73,2.84-8.94,2.12-2.99-.66-6.08.45-7.61,3.1l-.56.96c-1.47,2.54-.94,5.62.97,7.85,1.55,1.8,2.43,4.13,2.37,6.58-.06,2.5-1.09,4.82-2.78,6.55-2.21,2.27-2.3,5.86-.52,8.48l1.01,1.48c1.45,2.13,4.04,3.36,6.55,2.77,2.93-.7,6.04-.17,8.5,1.57,1.99,1.4,3.08,3.26,3.67,4.95.95,2.7,3.64,4.41,6.5,4.41Z" fill="none" stroke="#000" stroke-miterlimit="10" stroke-width="2"/></svg>