<?xml version="1.0" encoding="UTF-8"?><svg id="a" xmlns="http://www.w3.org/2000/svg" width="64" height="64" viewBox="0 0 64 64"><path d="M9.02,1.65h35.6c2.11,0,4.12.88,5.55,2.42l10.26,11.05c1.3,1.4,2.02,3.24,2.02,5.15v34.81c0,4.18-3.39,7.57-7.57,7.57H9.02c-4.18,0-7.57-3.39-7.57-7.57V9.22C1.45,5.04,4.84,1.65,9.02,1.65Z" fill="none" stroke="#000" stroke-miterlimit="10" stroke-width="2"/><path d="M17.4,1.65v11.81c0,3.86,3.13,6.99,6.99,6.99h15.23c3.86,0,6.99-3.13,6.99-6.99V1.65" fill="none" stroke="#000" stroke-miterlimit="10" stroke-width="2"/><path d="M14.29,63.08v-14.12c0-4.61,3.74-8.35,8.35-8.35h18.22c4.61,0,8.35,3.74,8.35,8.35v14.12" fill="none" stroke="#000" stroke-miterlimit="10" stroke-width="2"/></svg>