<?xml version="1.0" encoding="UTF-8"?><svg id="a" xmlns="http://www.w3.org/2000/svg" width="64" height="64" viewBox="0 0 64 64"><path d="M21.89,19.5c-1.46,0-5.78.18-9.19,3.33-3.28,3.03-3.91,7.14-4.27,9.47-.2,1.28-.19,2.92-.18,6.21.02,3.93.03,5.9.34,7.25.32,1.35,1.48,5.45,5.19,8.44,2.62,2.1,5.25,2.64,8.77,3.37,2.65.54,4.63.58,8.59.66,4.02.08,6.03.12,8.41-.24,3.51-.54,7.23-1.1,10.64-3.97,3.5-2.93,4.78-6.69,5.17-8.05.69-2.42.66-4.66.6-9.14-.03-2.33-.05-3.5-.26-4.69-.31-1.76-1.06-6.04-4.67-9.37-3.27-3.02-7.09-3.62-8.63-3.76" fill="none" stroke="#000" stroke-miterlimit="10" stroke-width="2"/><path d="M55.07,29.5l5.25,2.62c1.63.87,2.63,2.59,2.57,4.44v3.43c-.06,1.69-1.06,3.7-2.52,4.53l-5.41,2.52" fill="none" stroke="#000" stroke-miterlimit="10" stroke-width="2"/><path d="M9.11,29.54l-5.25,2.62c-1.63.87-2.63,2.59-2.57,4.44v3.43c.06,1.69,1.06,3.7,2.52,4.53l5.41,2.52" fill="none" stroke="#000" stroke-miterlimit="10" stroke-width="2"/><path d="M27.46,14.9h9.18c1.33,0,2.66.38,3.7,1.2.67.53,1.34,1.25,1.77,2.2,1.61,3.51-.94,7.8-3.71,9.82-2.83,2.06-6.03,1.84-7.11,1.76-1.1-.08-3.32-.26-5.43-1.76-2.91-2.08-5.43-6.53-3.78-10.02.12-.25.36-.71.81-1.23,1.13-1.31,2.84-1.98,4.57-1.98Z" fill="none" stroke="#000" stroke-miterlimit="10" stroke-width="2"/><rect x="20.55" y="39.3" width="3.93" height="6.17" rx="1.96" ry="1.96"/><rect x="39.61" y="39.28" width="3.93" height="6.17" rx="1.96" ry="1.96"/></svg>