<?xml version="1.0" encoding="UTF-8"?><svg id="a" xmlns="http://www.w3.org/2000/svg" width="64" height="64" viewBox="0 0 64 64"><path d="M13.79,2.05c-1.45,2.84-2.26,6.07-2.26,9.52,0,2.94.6,5.73,1.71,8.25,3.18,7.47,10.62,12.7,19.24,12.7s16.09-5.23,19.27-12.7c1.1-2.52,1.71-5.31,1.71-8.25,0-3.44-.81-6.68-2.29-9.52" fill="none" stroke="#000" stroke-miterlimit="10" stroke-width="2"/><path d="M51.72,62.73c1.05-2.47,1.6-5.18,1.6-8.02,0-11.59-9.38-20.98-20.98-20.98s-20.98,9.38-20.98,20.98c0,2.84.55,5.55,1.6,8.02" fill="none" stroke="#000" stroke-miterlimit="10" stroke-width="2"/><line x1="5.76" y1="2.05" x2="58.2" y2="2.05" fill="none" stroke="#000" stroke-miterlimit="10" stroke-width="2"/><line x1="5.69" y1="62.25" x2="58.14" y2="62.25" fill="none" stroke="#000" stroke-miterlimit="10" stroke-width="2"/><line x1="51.74" y1="19.82" x2="13.23" y2="19.82" fill="none" stroke="#000" stroke-miterlimit="10" stroke-width="2"/><path d="M49.56,62.68c.08-.45.11-.92.11-1.39,0-5.99-11.41-11.3-17.4-11.3s-19.05,5.15-19.05,11.14c0,.47.03.95.11,1.39" fill="none" stroke="#000" stroke-miterlimit="10" stroke-width="2"/></svg>