<?xml version="1.0" encoding="UTF-8"?><svg id="a" xmlns="http://www.w3.org/2000/svg" width="64" height="64" viewBox="0 0 64 64"><path d="M49.95,13.3v13.01h-13.11v-13.01h13.11M49.95,11.3h-13.11c-1.1,0-2,.9-2,2v13.01c0,1.1.9,2,2,2h13.11c1.1,0,2-.9,2-2v-13.01c0-1.1-.9-2-2-2h0Z"/><line x1="38.84" y1="11.68" x2="38.84" y2="7.63" fill="none" stroke="#000" stroke-miterlimit="10"/><line x1="47.89" y1="11.67" x2="47.89" y2="7.63" fill="none" stroke="#000" stroke-miterlimit="10"/><line x1="43.4" y1="12.13" x2="43.4" y2="3.71" fill="none" stroke="#000" stroke-miterlimit="10"/><path d="M38.9,5.89c.39,0,.71.32.71.71s-.32.71-.71.71-.71-.32-.71-.71.32-.71.71-.71M38.9,5.14c-.81,0-1.46.66-1.46,1.46s.66,1.46,1.46,1.46,1.46-.66,1.46-1.46-.66-1.46-1.46-1.46h0Z"/><path d="M43.41,2c.39,0,.71.32.71.71s-.32.71-.71.71-.71-.32-.71-.71.32-.71.71-.71M43.41,1.25c-.81,0-1.46.66-1.46,1.46s.66,1.46,1.46,1.46,1.46-.66,1.46-1.46-.66-1.46-1.46-1.46h0Z"/><path d="M47.89,5.9c.39,0,.71.32.71.71s-.32.71-.71.71-.71-.32-.71-.71.32-.71.71-.71M47.89,5.15c-.81,0-1.46.66-1.46,1.46s.66,1.46,1.46,1.46,1.46-.66,1.46-1.46-.66-1.46-1.46-1.46h0Z"/><line x1="35.21" y1="24.32" x2="31.16" y2="24.32" fill="none" stroke="#000" stroke-miterlimit="10"/><line x1="35.21" y1="15.27" x2="31.16" y2="15.27" fill="none" stroke="#000" stroke-miterlimit="10"/><line x1="35.66" y1="19.77" x2="27.24" y2="19.77" fill="none" stroke="#000" stroke-miterlimit="10"/><path d="M30.14,23.55c.39,0,.71.32.71.71s-.32.71-.71.71-.71-.32-.71-.71.32-.71.71-.71M30.14,22.8c-.81,0-1.46.66-1.46,1.46s.66,1.46,1.46,1.46,1.46-.66,1.46-1.46-.66-1.46-1.46-1.46h0Z"/><path d="M26.24,19.04c.39,0,.71.32.71.71s-.32.71-.71.71-.71-.32-.71-.71.32-.71.71-.71M26.24,18.29c-.81,0-1.46.66-1.46,1.46s.66,1.46,1.46,1.46,1.46-.66,1.46-1.46-.66-1.46-1.46-1.46h0Z"/><path d="M30.15,14.56c.39,0,.71.32.71.71s-.32.71-.71.71-.71-.32-.71-.71.32-.71.71-.71M30.15,13.81c-.81,0-1.46.66-1.46,1.46s.66,1.46,1.46,1.46,1.46-.66,1.46-1.46-.66-1.46-1.46-1.46h0Z"/><line x1="51.52" y1="24.39" x2="55.57" y2="24.39" fill="none" stroke="#000" stroke-miterlimit="10"/><line x1="51.53" y1="15.34" x2="55.57" y2="15.34" fill="none" stroke="#000" stroke-miterlimit="10"/><line x1="51.07" y1="19.84" x2="59.49" y2="19.84" fill="none" stroke="#000" stroke-miterlimit="10"/><path d="M56.59,23.63c.39,0,.71.32.71.71s-.32.71-.71.71-.71-.32-.71-.71.32-.71.71-.71M56.59,22.88c-.81,0-1.46.66-1.46,1.46s.66,1.46,1.46,1.46,1.46-.66,1.46-1.46-.66-1.46-1.46-1.46h0Z"/><path d="M60.49,19.11c.39,0,.71.32.71.71s-.32.71-.71.71-.71-.32-.71-.71.32-.71.71-.71M60.49,18.36c-.81,0-1.46.66-1.46,1.46s.66,1.46,1.46,1.46,1.46-.66,1.46-1.46-.66-1.46-1.46-1.46h0Z"/><path d="M56.58,14.63c.39,0,.71.32.71.71s-.32.71-.71.71-.71-.32-.71-.71.32-.71.71-.71M56.58,13.88c-.81,0-1.46.66-1.46,1.46s.66,1.46,1.46,1.46,1.46-.66,1.46-1.46-.66-1.46-1.46-1.46h0Z"/><line x1="38.82" y1="27.91" x2="38.82" y2="31.96" fill="none" stroke="#000" stroke-miterlimit="10"/><line x1="47.88" y1="27.92" x2="47.88" y2="31.96" fill="none" stroke="#000" stroke-miterlimit="10"/><line x1="43.38" y1="27.47" x2="43.38" y2="35.88" fill="none" stroke="#000" stroke-miterlimit="10"/><path d="M38.88,32.27c.39,0,.71.32.71.71s-.32.71-.71.71-.71-.32-.71-.71.32-.71.71-.71M38.88,31.52c-.81,0-1.46.66-1.46,1.46s.66,1.46,1.46,1.46,1.46-.66,1.46-1.46-.66-1.46-1.46-1.46h0Z"/><path d="M43.4,36.17c.39,0,.71.32.71.71s-.32.71-.71.71-.71-.32-.71-.71.32-.71.71-.71M43.4,35.42c-.81,0-1.46.66-1.46,1.46s.66,1.46,1.46,1.46,1.46-.66,1.46-1.46-.66-1.46-1.46-1.46h0Z"/><path d="M47.88,32.26c.39,0,.71.32.71.71s-.32.71-.71.71-.71-.32-.71-.71.32-.71.71-.71M47.88,31.51c-.81,0-1.46.66-1.46,1.46s.66,1.46,1.46,1.46,1.46-.66,1.46-1.46-.66-1.46-1.46-1.46h0Z"/><path d="M39.72,22.24l1.83-5.04h1.35l1.79,5.04h-1.24l-.34-1.05h-1.83l-.34,1.05h-1.23ZM41.53,20.31h1.32l-.55-1.75c-.02-.07-.04-.13-.05-.18s-.02-.11-.03-.19h-.03c-.01.07-.02.13-.04.18-.01.05-.03.11-.05.17l-.56,1.76Z"/><path d="M46.45,22.24h-1.13v-5.04h1.13v5.04Z"/><path d="M36.04,6.48h-13.54c-4.63,0-8.38,3.75-8.38,8.38v31.68c0,4.63,3.75,8.38,8.38,8.38h25.23c4.63,0,8.38-3.75,8.38-8.38v-17.77" fill="none" stroke="#000" stroke-miterlimit="10" stroke-width="2"/><path d="M14.16,13.99h-3.2c-4.64,0-8.39,3.75-8.39,8.39v31.69c0,4.61,3.75,8.37,8.39,8.37h25.24c4.32,0,7.88-3.29,8.32-7.5" fill="none" stroke="#000" stroke-miterlimit="10" stroke-width="2"/></svg>