<?xml version="1.0" encoding="UTF-8"?><svg id="a" xmlns="http://www.w3.org/2000/svg" width="64" height="64" viewBox="0 0 64 64"><path d="M3.75,7.42v49.47c0,3.33,2.7,6.03,6.03,6.03h44.32c3.33,0,6.03-2.7,6.03-6.03V18.54c0-1.43-.51-2.81-1.43-3.9l-9.43-11.12c-1.15-1.35-2.83-2.13-4.6-2.13H9.79c-3.33,0-6.03,2.7-6.03,6.03Z" fill="none" stroke="#000" stroke-miterlimit="10" stroke-width="2"/><path d="M44,1.38v6.13c.03,5.26,4.3,9.51,9.55,9.5l6.59-.02" fill="none" stroke="#000" stroke-miterlimit="10" stroke-width="2"/><path d="M41.44,24.78v19.65h-19.79v-19.65h19.79M41.44,22.78h-19.79c-1.1,0-2,.9-2,2v19.65c0,1.1.9,2,2,2h19.79c1.1,0,2-.9,2-2v-19.65c0-1.1-.9-2-2-2h0Z"/><line x1="25.22" y1="23.3" x2="25.22" y2="17.67" fill="none" stroke="#000" stroke-miterlimit="10"/><line x1="37.81" y1="23.29" x2="37.81" y2="17.67" fill="none" stroke="#000" stroke-miterlimit="10"/><line x1="31.55" y1="23.92" x2="31.55" y2="12.21" fill="none" stroke="#000" stroke-miterlimit="10"/><path d="M25.3,14.96c.71,0,1.28.58,1.28,1.28s-.58,1.28-1.28,1.28-1.28-.58-1.28-1.28.58-1.28,1.28-1.28M25.3,14.21c-1.12,0-2.03.91-2.03,2.03s.91,2.03,2.03,2.03,2.03-.91,2.03-2.03-.91-2.03-2.03-2.03h0Z"/><path d="M31.58,9.55c.71,0,1.28.58,1.28,1.28s-.58,1.28-1.28,1.28-1.28-.58-1.28-1.28.58-1.28,1.28-1.28M31.58,8.8c-1.12,0-2.03.91-2.03,2.03s.91,2.03,2.03,2.03,2.03-.91,2.03-2.03-.91-2.03-2.03-2.03h0Z"/><path d="M37.81,14.97c.71,0,1.28.58,1.28,1.28s-.58,1.28-1.28,1.28-1.28-.58-1.28-1.28.58-1.28,1.28-1.28M37.81,14.22c-1.12,0-2.03.91-2.03,2.03s.91,2.03,2.03,2.03,2.03-.91,2.03-2.03-.91-2.03-2.03-2.03h0Z"/><line x1="20.17" y1="40.88" x2="14.54" y2="40.88" fill="none" stroke="#000" stroke-miterlimit="10"/><line x1="20.16" y1="28.29" x2="14.53" y2="28.29" fill="none" stroke="#000" stroke-miterlimit="10"/><line x1="20.79" y1="34.55" x2="9.08" y2="34.55" fill="none" stroke="#000" stroke-miterlimit="10"/><path d="M13.12,39.52c.71,0,1.28.58,1.28,1.28s-.58,1.28-1.28,1.28-1.28-.58-1.28-1.28.58-1.28,1.28-1.28M13.12,38.77c-1.12,0-2.03.91-2.03,2.03s.91,2.03,2.03,2.03,2.03-.91,2.03-2.03-.91-2.03-2.03-2.03h0Z"/><path d="M7.7,33.24c.71,0,1.28.58,1.28,1.28s-.58,1.28-1.28,1.28-1.28-.58-1.28-1.28.58-1.28,1.28-1.28M7.7,32.49c-1.12,0-2.03.91-2.03,2.03s.91,2.03,2.03,2.03,2.03-.91,2.03-2.03-.91-2.03-2.03-2.03h0Z"/><path d="M13.13,27.01c.71,0,1.28.58,1.28,1.28s-.58,1.28-1.28,1.28-1.28-.58-1.28-1.28.58-1.28,1.28-1.28M13.13,26.26c-1.12,0-2.03.91-2.03,2.03s.91,2.03,2.03,2.03,2.03-.91,2.03-2.03-.91-2.03-2.03-2.03h0Z"/><line x1="42.85" y1="40.98" x2="48.48" y2="40.98" fill="none" stroke="#000" stroke-miterlimit="10"/><line x1="42.86" y1="28.39" x2="48.48" y2="28.39" fill="none" stroke="#000" stroke-miterlimit="10"/><line x1="42.23" y1="34.65" x2="53.94" y2="34.65" fill="none" stroke="#000" stroke-miterlimit="10"/><path d="M49.9,39.62c.71,0,1.28.58,1.28,1.28s-.58,1.28-1.28,1.28-1.28-.58-1.28-1.28.58-1.28,1.28-1.28M49.9,38.87c-1.12,0-2.03.91-2.03,2.03s.91,2.03,2.03,2.03,2.03-.91,2.03-2.03-.91-2.03-2.03-2.03h0Z"/><path d="M55.32,33.34c.71,0,1.28.58,1.28,1.28s-.58,1.28-1.28,1.28-1.28-.58-1.28-1.28.58-1.28,1.28-1.28M55.32,32.59c-1.12,0-2.03.91-2.03,2.03s.91,2.03,2.03,2.03,2.03-.91,2.03-2.03-.91-2.03-2.03-2.03h0Z"/><path d="M49.89,27.11c.71,0,1.28.58,1.28,1.28s-.58,1.28-1.28,1.28-1.28-.58-1.28-1.28.58-1.28,1.28-1.28M49.89,26.36c-1.12,0-2.03.91-2.03,2.03s.91,2.03,2.03,2.03,2.03-.91,2.03-2.03-.91-2.03-2.03-2.03h0Z"/><line x1="25.2" y1="45.88" x2="25.2" y2="51.5" fill="none" stroke="#000" stroke-miterlimit="10"/><line x1="37.78" y1="45.88" x2="37.78" y2="51.51" fill="none" stroke="#000" stroke-miterlimit="10"/><line x1="31.53" y1="45.25" x2="31.53" y2="56.96" fill="none" stroke="#000" stroke-miterlimit="10"/><path d="M25.27,51.64c.71,0,1.28.58,1.28,1.28s-.58,1.28-1.28,1.28-1.28-.58-1.28-1.28.58-1.28,1.28-1.28M25.27,50.89c-1.12,0-2.03.91-2.03,2.03s.91,2.03,2.03,2.03,2.03-.91,2.03-2.03-.91-2.03-2.03-2.03h0Z"/><path d="M31.55,57.06c.71,0,1.28.58,1.28,1.28s-.58,1.28-1.28,1.28-1.28-.58-1.28-1.28.58-1.28,1.28-1.28M31.55,56.31c-1.12,0-2.03.91-2.03,2.03s.91,2.03,2.03,2.03,2.03-.91,2.03-2.03-.91-2.03-2.03-2.03h0Z"/><path d="M37.78,51.63c.71,0,1.28.58,1.28,1.28s-.58,1.28-1.28,1.28-1.28-.58-1.28-1.28.58-1.28,1.28-1.28M37.78,50.88c-1.12,0-2.03.91-2.03,2.03s.91,2.03,2.03,2.03,2.03-.91,2.03-2.03-.91-2.03-2.03-2.03h0Z"/><path d="M26.44,37.98l2.55-7h1.87l2.49,7h-1.72l-.47-1.46h-2.54l-.47,1.46h-1.71ZM28.96,35.29h1.83l-.77-2.43c-.03-.1-.05-.18-.07-.25s-.03-.16-.05-.26h-.04c-.02.1-.03.18-.05.25-.02.07-.04.15-.07.24l-.78,2.45Z"/><path d="M35.8,37.98h-1.58v-7h1.58v7Z"/></svg>