<?xml version="1.0" encoding="UTF-8"?><svg id="a" xmlns="http://www.w3.org/2000/svg" width="64" height="64" viewBox="0 0 64 64"><path d="M.72,62.19v-4.17c0-3.5,2.84-6.33,6.33-6.33h5.43c3.5,0,6.33,2.84,6.33,6.33v4.17" fill="none" stroke="#000" stroke-miterlimit="10"/><path d="M22.56,62.25v-4.17c0-3.5,2.84-6.33,6.33-6.33h5.43c3.5,0,6.33,2.84,6.33,6.33v4.17" fill="none" stroke="#000" stroke-miterlimit="10"/><path d="M45.07,62.14v-4.17c0-3.5,2.84-6.33,6.33-6.33h5.43c3.5,0,6.33,2.84,6.33,6.33v4.17" fill="none" stroke="#000" stroke-miterlimit="10"/><path d="M4.31,50.02v-1.19c0-2.78,2.52-5.04,5.63-5.04h4.82c3.11,0,5.62,2.26,5.62,5.04l.07,4.53" fill="none" stroke="#000" stroke-miterlimit="10"/><path d="M23.77,51.69l-.02-2.34c0-3.08,2.5-5.58,5.58-5.58h4.78c3.08,0,5.58,2.5,5.58,5.58v2.34" fill="none" stroke="#000" stroke-miterlimit="10"/><path d="M59.58,50.19v-1.19c0-2.78-2.52-5.04-5.63-5.04h-4.82c-3.11,0-5.62,2.26-5.62,5.04l-.07,4.53" fill="none" stroke="#000" stroke-miterlimit="10"/><path d="M8.83,42.58v-1c0-2.33,2.11-4.22,4.71-4.22h4.04c2.6,0,4.71,1.89,4.71,4.22l.06,3.8" fill="none" stroke="#000" stroke-miterlimit="10"/><path d="M25.13,43.97l-.02-1.96c0-2.58,2.09-4.67,4.67-4.67h4.01c2.58,0,4.67,2.09,4.67,4.67v1.96" fill="none" stroke="#000" stroke-miterlimit="10"/><path d="M55.13,42.72v-1c0-2.33-2.11-4.22-4.71-4.22h-4.04c-2.6,0-4.71,1.89-4.71,4.22l-.06,3.8" fill="none" stroke="#000" stroke-miterlimit="10"/><rect x="2.75" y="30.5" width="58.29" height="2.39"/><path d="M59.29,3.55c.36,0,.66.3.66.66v23.89c0,.36-.3.66-.66.66H4.49c-.36,0-.66-.3-.66-.66V4.21c0-.36.3-.66.66-.66h54.8M59.29,2.55H4.49c-.92,0-1.66.74-1.66,1.66v23.89c0,.92.74,1.66,1.66,1.66h54.8c.92,0,1.66-.74,1.66-1.66V4.21c0-.92-.74-1.66-1.66-1.66h0Z"/><rect x="5.16" y="27.33" width="6.12" height="1.66" rx=".22" ry=".22"/><circle cx="31.64" cy="16.43" r="2.73" fill="none" stroke="#000" stroke-miterlimit="10" stroke-width="2"/><path d="M30.86,25.48h1.09c.85,0,1.58-.54,1.9-1.33.2-.51.56-1.06,1.19-1.47.71-.46,1.57-.61,2.38-.45s1.61-.29,2.02-1l.34-.59c.42-.73.32-1.61-.18-2.29-.4-.54-.62-1.21-.61-1.9.01-.74.29-1.45.77-2,.59-.68.75-1.62.3-2.4l-.36-.62c-.42-.73-1.26-1.13-2.09-.98s-1.68-.02-2.39-.49c-.66-.44-1.03-1.03-1.23-1.57-.3-.82-1.05-1.39-1.92-1.39h-1.03c-.95,0-1.83.61-2.04,1.54-.14.61-.45,1.17-.92,1.58-.72.63-1.73.86-2.7.64-.9-.2-1.84.14-2.3.94l-.17.29c-.44.77-.28,1.7.29,2.37.47.54.73,1.25.71,1.99-.02.75-.33,1.46-.84,1.98-.67.68-.69,1.77-.16,2.56l.3.45c.44.64,1.22,1.02,1.98.84.89-.21,1.82-.05,2.57.47.6.42.93.98,1.11,1.5.29.82,1.1,1.33,1.96,1.33Z" fill="none" stroke="#000" stroke-miterlimit="10" stroke-width="2"/></svg>