<?xml version="1.0" encoding="UTF-8"?><svg id="a" xmlns="http://www.w3.org/2000/svg" width="64" height="64" viewBox="0 0 64 64"><path d="M34.85,10.39c-.9,0-1.93-.25-3.06-.76l-.47-.21V3.1l1.15.59c.81.42,1.55.57,2.21.45.58-.11.98-.4,1.45-.73.54-.4,1.16-.84,2.11-1.03.97-.19,1.99-.04,3.04.44l.46.21v6.15l-1.08-.44c-.69-.28-1.32-.35-1.86-.2-.47.13-.74.37-1.1.68-.29.25-.61.54-1.06.77-.53.27-1.13.41-1.79.41ZM32.9,8.39c1.29.5,2.3.56,3.03.2.27-.14.49-.33.74-.55.42-.37.9-.8,1.73-1.02.57-.15,1.16-.17,1.78-.06v-2.89c-.58-.19-1.13-.24-1.63-.14-.61.12-1.01.41-1.48.75-.54.39-1.16.84-2.09,1.01-.66.12-1.35.07-2.07-.13v2.83ZM32.08,27.99c-2.6,0-4.71-2.11-4.71-4.71s2.11-4.71,4.71-4.71,4.71,2.11,4.71,4.71-2.11,4.71-4.71,4.71ZM32.08,20.14c-1.73,0-3.13,1.41-3.13,3.13s1.41,3.13,3.13,3.13,3.13-1.41,3.13-3.13-1.41-3.13-3.13-3.13ZM31.9,52.85h.34c.71,0,1.28.58,1.28,1.29l-.05,7.05h1.58s.06-8.63.06-8.63c0-.71-.57-1.29-1.28-1.29h-3.51c-.71,0-1.28.57-1.28,1.28v8.74h1.58v-7.16c0-.71.57-1.28,1.28-1.28ZM28.14,61.29l-.04-15.78c0-.42.19-.81.52-1.08l2.61-2.09c.51-.41,1.24-.4,1.74.02l2.49,2.07c.31.26.5.65.5,1.06v15.8h1.58v-16.41c0-.49-.22-.95-.59-1.26l-3.78-3.14c-.6-.5-1.47-.51-2.08-.02l-3.93,3.15c-.39.31-.62.79-.62,1.29l.04,16.4h1.58ZM41.24,61.29l-.03-41.1c0-.41-.16-.81-.45-1.1l-7.54-7.68c-.61-.62-1.62-.63-2.23-.01l-7.92,7.89c-.3.3-.46.7-.46,1.11v40.89h1.58V21.05c0-.42.17-.82.46-1.11l6.33-6.31c.62-.62,1.62-.61,2.23.01l5.98,6.09c.29.29.45.69.45,1.1l.03,40.46h1.58ZM28.11,37.15h-1.6c-.86,0-1.56-.7-1.56-1.56v-3.98c0-.86.7-1.56,1.56-1.56h1.6c.86,0,1.56.7,1.56,1.56v3.98c0,.86-.7,1.56-1.56,1.56ZM28.09,31.62l-1.58.02.02,3.96,1.57-.02v-3.96ZM37.54,37.14h-1.6c-.86,0-1.56-.7-1.56-1.56v-3.98c0-.86.7-1.56,1.56-1.56h1.6c.86,0,1.56.7,1.56,1.56v3.98c0,.86-.7,1.56-1.56,1.56ZM37.52,31.6l-1.58.02.02,3.96,1.57-.02v-3.96ZM20.53,58.55h-1.6c-.86,0-1.56-.7-1.56-1.56v-3.97c0-.86.7-1.56,1.56-1.56h1.6c.86,0,1.56.7,1.56,1.56v3.97c0,.86-.7,1.56-1.56,1.56ZM20.51,53.02l-1.58.02.02,3.96,1.57-.02v-3.96ZM14.87,58.55h-1.6c-.86,0-1.56-.7-1.56-1.56v-3.98c0-.86.7-1.56,1.56-1.56h1.6c.86,0,1.56.7,1.56,1.56v3.98c0,.86-.7,1.56-1.56,1.56ZM14.85,53.02l-1.58.02.02,3.96,1.57-.02v-3.96ZM9.51,58.14h-1.6c-.86,0-1.56-.7-1.56-1.56v-3.97c0-.86.7-1.56,1.56-1.56h1.6c.86,0,1.56.7,1.56,1.56v3.97c0,.86-.7,1.56-1.56,1.56ZM9.49,52.61l-1.58.02.02,3.96,1.57-.02v-3.96ZM9.52,48.99h-1.6c-.86,0-1.56-.7-1.56-1.56v-3.98c0-.86.7-1.56,1.56-1.56h1.6c.86,0,1.56.7,1.56,1.56v3.98c0,.86-.7,1.56-1.56,1.56ZM9.5,43.45l-1.59.02.02,3.96,1.57-.02v-3.96ZM14.88,48.99h-1.6c-.86,0-1.56-.7-1.56-1.56v-3.98c0-.86.7-1.56,1.56-1.56h1.6c.86,0,1.56.7,1.56,1.56v3.98c0,.86-.7,1.56-1.56,1.56ZM14.86,43.46l-1.58.02.02,3.96,1.57-.02v-3.96ZM20.53,48.97h-1.6c-.86,0-1.56-.7-1.56-1.56v-3.98c0-.86.7-1.56,1.56-1.56h1.6c.86,0,1.56.7,1.56,1.56v3.98c0,.86-.7,1.56-1.56,1.56ZM20.51,43.44l-1.58.02.02,3.96,1.57-.02v-3.96ZM57.19,58.5h-1.6c-.86,0-1.56-.7-1.56-1.56v-3.98c0-.86.7-1.56,1.56-1.56h1.6c.86,0,1.56.7,1.56,1.56v3.98c0,.86-.7,1.56-1.56,1.56ZM57.17,52.97l-1.58.02.02,3.96,1.57-.02v-3.96ZM51.63,58.56h-1.6c-.86,0-1.56-.7-1.56-1.56v-3.97c0-.86.7-1.56,1.56-1.56h1.6c.86,0,1.56.7,1.56,1.56v3.97c0,.86-.7,1.56-1.56,1.56ZM51.61,53.03l-1.58.02.02,3.96,1.56-.02v-3.96ZM45.93,58.55h-1.6c-.86,0-1.56-.7-1.56-1.56v-3.98c0-.86.7-1.56,1.56-1.56h1.6c.86,0,1.56.7,1.56,1.56v3.98c0,.86-.7,1.56-1.56,1.56ZM45.91,53.02l-1.59.02.02,3.96,1.57-.02v-3.96ZM57.14,48.9h-1.6c-.86,0-1.56-.7-1.56-1.56v-3.98c0-.86.7-1.56,1.56-1.56h1.6c.86,0,1.56.7,1.56,1.56v3.98c0,.86-.7,1.56-1.56,1.56ZM57.12,43.37l-1.58.02.02,3.96,1.56-.02v-3.96ZM51.56,48.95h-1.6c-.86,0-1.56-.7-1.56-1.56v-3.98c0-.86.7-1.56,1.56-1.56h1.6c.86,0,1.56.7,1.56,1.56v3.98c0,.86-.7,1.56-1.56,1.56ZM51.54,43.42l-1.58.02.02,3.96,1.57-.02v-3.96ZM45.88,49h-1.6c-.86,0-1.56-.7-1.56-1.56v-3.98c0-.86.7-1.56,1.56-1.56h1.6c.86,0,1.56.7,1.56,1.56v3.98c0,.86-.7,1.56-1.56,1.56ZM45.86,43.47l-1.58.02.02,3.96,1.57-.02v-3.96ZM63.12,60.53l-62.11-.02v1.58l62.11.02v-1.58ZM63.12,36.33h-22.66v1.58h21.09v23.39h1.58v-24.96ZM2.59,61.29l-.22-23.38h21.03v-1.58H.78l.23,24.97,1.58-.02ZM7.97,30.72c.41-.45.98-.7,1.59-.7l13.83.11v-1.58s-14.52-.11-14.52-.11c-.61,0-1.18.25-1.59.7l-6.51,7.2,1.17,1.06,6.03-6.68ZM63.07,36.27l-6.08-7.06c-.36-.41-.88-.65-1.42-.65h-15.11v1.58h14.39c.55,0,1.07.24,1.42.65l5.61,6.51,1.19-1.03Z"/><rect x="31.33" y="2.64" width="1.58" height="9.03" transform="translate(-.12 .54) rotate(-.96)"/></svg>