<?xml version="1.0" encoding="UTF-8"?><svg id="a" xmlns="http://www.w3.org/2000/svg" width="64" height="64" viewBox="0 0 64 64"><path d="M15.54,3.79c.82,0,1.48.66,1.48,1.48v4.68c0,.82-.66,1.48-1.48,1.48H2.94c-.82,0-1.48-.66-1.48-1.48v-4.68c0-.82.66-1.48,1.48-1.48h12.6M15.54,2.79H2.94C1.57,2.79.46,3.9.46,5.26v4.68c0,1.37,1.11,2.48,2.48,2.48h12.6c1.37,0,2.48-1.11,2.48-2.48v-4.68c0-1.37-1.11-2.48-2.48-2.48h0Z"/><path d="M51.01,3.76c.82,0,1.48.66,1.48,1.48v4.68c0,.82-.66,1.48-1.48,1.48h-12.6c-.82,0-1.48-.66-1.48-1.48v-4.68c0-.82.66-1.48,1.48-1.48h12.6M51.01,2.76h-12.6c-1.37,0-2.48,1.11-2.48,2.48v4.68c0,1.37,1.11,2.48,2.48,2.48h12.6c1.37,0,2.48-1.11,2.48-2.48v-4.68c0-1.37-1.11-2.48-2.48-2.48h0Z"/><line x1="5.33" y1="7.49" x2="13.31" y2="7.49" fill="none" stroke="#000" stroke-miterlimit="10"/><line x1="40.88" y1="7.49" x2="48.43" y2="7.49" fill="none" stroke="#000" stroke-miterlimit="10"/><line x1="21.95" y1="2.79" x2="21.95" y2="22.17" fill="none" stroke="#000" stroke-miterlimit="10"/><path d="M14.32,15.53c1.56,0,2.82,1.27,2.82,2.82s-1.27,2.82-2.82,2.82H4.28c-1.56,0-2.82-1.27-2.82-2.82s1.27-2.82,2.82-2.82h10.03M14.32,14.53H4.28c-2.11,0-3.82,1.71-3.82,3.82s1.71,3.82,3.82,3.82h10.03c2.11,0,3.82-1.71,3.82-3.82s-1.71-3.82-3.82-3.82h0Z"/><path d="M39.76,15.5c1.56,0,2.82,1.27,2.82,2.82s-1.27,2.82-2.82,2.82h-10.03c-1.56,0-2.82-1.27-2.82-2.82s1.27-2.82,2.82-2.82h10.03M39.76,14.5h-10.03c-2.11,0-3.82,1.71-3.82,3.82s1.71,3.82,3.82,3.82h10.03c2.11,0,3.82-1.71,3.82-3.82s-1.71-3.82-3.82-3.82h0Z"/><path d="M59.47,15.48c1.56,0,2.82,1.27,2.82,2.82s-1.27,2.82-2.82,2.82h-10.03c-1.56,0-2.82-1.27-2.82-2.82s1.27-2.82,2.82-2.82h10.03M59.47,14.48h-10.03c-2.11,0-3.82,1.71-3.82,3.82s1.71,3.82,3.82,3.82h10.03c2.11,0,3.82-1.71,3.82-3.82s-1.71-3.82-3.82-3.82h0Z"/><path d="M59.45,25.43c1.56,0,2.82,1.27,2.82,2.82s-1.27,2.82-2.82,2.82h-10.03c-1.56,0-2.82-1.27-2.82-2.82s1.27-2.82,2.82-2.82h10.03M59.45,24.43h-10.03c-2.11,0-3.82,1.71-3.82,3.82s1.71,3.82,3.82,3.82h10.03c2.11,0,3.82-1.71,3.82-3.82s-1.71-3.82-3.82-3.82h0Z"/><path d="M59.61,35.26c1.56,0,2.82,1.27,2.82,2.82s-1.27,2.82-2.82,2.82h-10.03c-1.56,0-2.82-1.27-2.82-2.82s1.27-2.82,2.82-2.82h10.03M59.61,34.26h-10.03c-2.11,0-3.82,1.71-3.82,3.82h0c0,2.11,1.71,3.82,3.82,3.82h10.03c2.11,0,3.82-1.71,3.82-3.82h0c0-2.11-1.71-3.82-3.82-3.82h0Z"/><path d="M39.7,35.34c1.56,0,2.82,1.27,2.82,2.82s-1.27,2.82-2.82,2.82h-10.03c-1.56,0-2.82-1.27-2.82-2.82s1.27-2.82,2.82-2.82h10.03M39.7,34.34h-10.03c-2.11,0-3.82,1.71-3.82,3.82s1.71,3.82,3.82,3.82h10.03c2.11,0,3.82-1.71,3.82-3.82s-1.71-3.82-3.82-3.82h0Z"/><path d="M59.45,44.99c1.56,0,2.82,1.27,2.82,2.82s-1.27,2.82-2.82,2.82h-10.03c-1.56,0-2.82-1.27-2.82-2.82s1.27-2.82,2.82-2.82h10.03M59.45,43.99h-10.03c-2.11,0-3.82,1.71-3.82,3.82s1.71,3.82,3.82,3.82h10.03c2.11,0,3.82-1.71,3.82-3.82s-1.71-3.82-3.82-3.82h0Z"/><path d="M59.5,54.9c1.56,0,2.82,1.27,2.82,2.82s-1.27,2.82-2.82,2.82h-10.03c-1.56,0-2.82-1.27-2.82-2.82s1.27-2.82,2.82-2.82h10.03M59.5,53.9h-10.03c-2.11,0-3.82,1.71-3.82,3.82s1.71,3.82,3.82,3.82h10.03c2.11,0,3.82-1.71,3.82-3.82s-1.71-3.82-3.82-3.82h0Z"/><path d="M14.32,44.99c1.56,0,2.82,1.27,2.82,2.82s-1.27,2.82-2.82,2.82H4.29c-1.56,0-2.82-1.27-2.82-2.82s1.27-2.82,2.82-2.82h10.03M14.32,43.99H4.29c-2.11,0-3.82,1.71-3.82,3.82s1.71,3.82,3.82,3.82h10.03c2.11,0,3.82-1.71,3.82-3.82s-1.71-3.82-3.82-3.82h0Z"/><path d="M14.34,35.3c1.56,0,2.82,1.27,2.82,2.82s-1.27,2.82-2.82,2.82H4.3c-1.56,0-2.82-1.27-2.82-2.82s1.27-2.82,2.82-2.82h10.03M14.34,34.3H4.3c-2.11,0-3.82,1.71-3.82,3.82s1.71,3.82,3.82,3.82h10.03c2.11,0,3.82-1.71,3.82-3.82s-1.71-3.82-3.82-3.82h0Z"/><line x1="21.95" y1="34.21" x2="21.95" y2="61.82" fill="none" stroke="#000" stroke-miterlimit="10"/><path d="M11.85,31.18h-.58c-1.63,0-2.95-1.32-2.95-2.95h0c0-1.63,1.32-2.95,2.95-2.95h9.82c1.63,0,2.95,1.32,2.95,2.95h0c0,1.63-1.32,2.95-2.95,2.95h-.61" fill="none" stroke="#000" stroke-miterlimit="10"/><path d="M39.93,45.1c1.56,0,2.82,1.27,2.82,2.82s-1.27,2.82-2.82,2.82h-10.03c-1.56,0-2.82-1.27-2.82-2.82s1.27-2.82,2.82-2.82h10.03M39.93,44.1h-10.03c-2.11,0-3.82,1.71-3.82,3.82s1.71,3.82,3.82,3.82h10.03c2.11,0,3.82-1.71,3.82-3.82s-1.71-3.82-3.82-3.82h0Z"/><path d="M19.24,32.8l-1.33,1.38c-.1-.18-.57-.54-1.52-1.27-.7-.54-1.37-.12-1.58-.04-.47-1.56-1.13-3.05-1.6-4.61l4.71,1.61c-.07.16-.66.98-.11,1.55.77.79,1.34,1.36,1.44,1.38Z"/></svg>