<?xml version="1.0" encoding="UTF-8"?><svg id="a" xmlns="http://www.w3.org/2000/svg" width="64" height="64" viewBox="0 0 64 64"><rect x="28.97" y="1.03" width="5.52" height="8.45" rx="2.76" ry="2.76"/><rect x="10.28" y="8.72" width="5.52" height="8.45" rx="2.76" ry="2.76" transform="translate(-5.34 13.01) rotate(-45)"/><rect x="2.24" y="27.35" width="5.52" height="8.45" rx="2.76" ry="2.76" transform="translate(-26.58 36.58) rotate(-90)"/><rect x="9.84" y="46.22" width="5.52" height="8.45" rx="2.76" ry="2.76" transform="translate(-14.17 95.02) rotate(-135)"/><rect x="29.06" y="54.82" width="5.52" height="8.45" rx="2.76" ry="2.76" transform="translate(63.63 118.1) rotate(180)"/><rect x="48.37" y="46.74" width="5.52" height="8.45" rx="2.76" ry="2.76" transform="translate(123.31 50.85) rotate(135)"/><rect x="56.14" y="27.49" width="5.52" height="8.45" rx="2.76" ry="2.76" transform="translate(90.61 -27.18) rotate(90)"/><rect x="48.01" y="8.71" width="5.52" height="8.45" rx="2.76" ry="2.76" transform="translate(24.02 -32.11) rotate(45)"/></svg>