<?xml version="1.0" encoding="UTF-8"?><svg id="a" xmlns="http://www.w3.org/2000/svg" width="64" height="64" viewBox="0 0 64 64"><path d="M2.42,4.47v48.37c0,3.87,3.14,7,7,7h51.06" fill="none" stroke="#000" stroke-miterlimit="10" stroke-width="2"/><circle cx="2.41" cy="4.45" r=".99"/><circle cx="60.48" cy="59.85" r="1"/><path d="M8.64,51.5c5.52-16.86,11.16-31.63,22.9-31.79,12.75-.17,17.73,16.86,24.18,31.79" fill="none" stroke="#000" stroke-miterlimit="10" stroke-width="2"/><rect x="18.7" y="29.89" width="3.58" height="1.31" rx=".66" ry=".66"/><rect x="23.87" y="29.86" width="3.58" height="1.31" rx=".66" ry=".66"/><rect x="29.49" y="29.89" width="3.58" height="1.31" rx=".66" ry=".66"/><rect x="35.17" y="29.86" width="3.58" height="1.31" rx=".66" ry=".66"/><rect x="40.88" y="29.89" width="3.58" height="1.31" rx=".66" ry=".66"/><rect x="13.3" y="29.94" width="3.58" height="1.31" rx=".66" ry=".66"/><rect x="46.53" y="29.9" width="3.58" height="1.31" rx=".66" ry=".66"/></svg>