<?xml version="1.0" encoding="UTF-8"?><svg id="a" xmlns="http://www.w3.org/2000/svg" width="64" height="64" viewBox="0 0 64 64"><path d="M53.85,2.8c.8,0,1.44.65,1.44,1.44v55.82c0,.8-.65,1.44-1.44,1.44H10.05c-.8,0-1.44-.65-1.44-1.44V4.24c0-.8.65-1.44,1.44-1.44h43.8M53.85.8H10.05c-1.9,0-3.44,1.54-3.44,3.44v55.82c0,1.9,1.54,3.44,3.44,3.44h43.8c1.9,0,3.44-1.54,3.44-3.44V4.24c0-1.9-1.54-3.44-3.44-3.44h0Z"/><path d="M20.11,45.82c-.85,0-1.53.69-1.53,1.53s.69,1.53,1.53,1.53,1.53-.69,1.53-1.53-.69-1.53-1.53-1.53h0Z"/><path d="M20.09,15.83c-.85,0-1.53.69-1.53,1.53s.69,1.53,1.53,1.53,1.53-.69,1.53-1.53-.69-1.53-1.53-1.53h0Z"/><path d="M19.39,37.38l-3.23-3.23c-.78-.78-.78-2.04,0-2.83h0c.78-.78,2.04-.78,2.83,0l.95.95,4.19-3.97c.8-.76,2.07-.72,2.82.08h0c.76.8.72,2.07-.08,2.82l-6.53,6.18c-.27.26-.69.25-.96-.01Z"/><rect x="30.7" y="16.07" width="17.51" height="2.36" rx=".59" ry=".59"/><rect x="30.71" y="30.99" width="17.51" height="2.36" rx=".59" ry=".59"/><rect x="30.59" y="46.16" width="17.51" height="2.36" rx=".59" ry=".59"/></svg>