<?xml version="1.0" encoding="UTF-8"?><svg id="a" xmlns="http://www.w3.org/2000/svg" width="64" height="64" viewBox="0 0 64 64"><path d="M9.12,60.3c-3.24,0-6.15-1.67-7.79-4.46-1.65-2.81-1.67-6.19-.06-9.03L22.97,8.62c1.58-2.79,4.44-4.49,7.64-4.57,3.23-.04,6.14,1.5,7.85,4.21l23.89,37.9c1.77,2.81,1.88,6.23.28,9.15s-4.54,4.67-7.86,4.69l-45.58.3h-.06ZM30.83,9.13s-.07,0-.1,0c-1.42.03-2.64.76-3.34,2L5.69,49.32c-.7,1.24-.69,2.71.03,3.95.72,1.23,2.03,2.03,3.43,1.95l45.58-.3c1.46,0,2.74-.78,3.44-2.05.7-1.27.65-2.77-.12-4L34.16,10.97c-.74-1.17-1.95-1.84-3.33-1.84ZM33.33,21h-5.08v17.9h5.08v-17.9ZM33.33,46.46h-4.97v5.14h4.97v-5.14Z"/></svg>