<?xml version="1.0" encoding="UTF-8"?><svg id="a" xmlns="http://www.w3.org/2000/svg" width="64" height="64" viewBox="0 0 64 64"><path d="M47.2,63.57h-12.77c-6.38,0-11.56-5.18-11.56-11.56h0c0-1.21.98-2.2,2.2-2.2h.62c1.21,0,2.2.98,2.2,2.2h0c0,3.62,2.93,6.55,6.55,6.55h12.77c3.62,0,6.55-2.93,6.55-6.55V12.3c0-3.62-2.93-6.55-6.55-6.55h-12.77c-3.62,0-6.55,2.93-6.55,6.55v.21c0,1.21-.98,2.2-2.2,2.2h-.62c-1.21,0-2.2-.98-2.2-2.2v-.21c0-6.38,5.18-11.56,11.56-11.56h12.77c6.38,0,11.56,5.18,11.56,11.56v39.71c0,6.39-5.18,11.56-11.56,11.56ZM40.76,38.73c2.47-1.91,3.64-5.02,2.99-8.21-.4-1.96-1.61-3.66-3.2-4.88-1.81-1.39-4.77-3.66-6.72-5.17-1.1-.84-2.67-.63-3.51.46h0c-.84,1.1-.64,2.67.46,3.51l6.8,5.22c.58.45,1.06,1.05,1.24,1.77.32,1.28-.13,2.55-1.12,3.32l-6.93,5.37c-1.09.85-1.29,2.42-.45,3.51h0c.85,1.09,2.42,1.29,3.52.45l6.93-5.37ZM43.35,32.61v-.31c0-1.31-1.06-2.36-2.36-2.36H7.49c-1.31,0-2.36,1.06-2.36,2.36v.31c0,1.31,1.06,2.36,2.36,2.36h33.49c1.31,0,2.36-1.06,2.36-2.36Z"/></svg>