<?xml version="1.0" encoding="UTF-8"?><svg id="a" xmlns="http://www.w3.org/2000/svg" width="64" height="64" viewBox="0 0 64 64"><path d="M2.61,26.02h0c-1.06,0-1.93-.86-1.93-1.93v-11.69C.69,6.32,5.61,1.4,11.69,1.4h11.69c1.06,0,1.93.86,1.93,1.93h0c0,1.06-.86,1.93-1.93,1.93h-11.69c-3.95,0-7.14,3.2-7.14,7.14v11.69c0,1.06-.86,1.93-1.93,1.93ZM62.99,12.18c0-6.07-4.92-11-11-11h-11.69c-1.06,0-1.93.86-1.93,1.93h0c0,1.06.86,1.93,1.93,1.93h11.69c3.95,0,7.14,3.2,7.14,7.14v11.69c0,1.06.86,1.93,1.93,1.93h0c1.06,0,1.93-.86,1.93-1.93v-11.69ZM63.25,52.03v-11.69c0-1.06-.86-1.93-1.93-1.93h0c-1.06,0-1.93.86-1.93,1.93v11.69c0,3.95-3.2,7.15-7.15,7.15h-11.69c-1.06,0-1.93.86-1.93,1.93h0c0,1.06.86,1.93,1.93,1.93h11.69c6.07,0,11-4.92,11-11ZM23.34,59.26h-11.69c-3.95,0-7.14-3.2-7.14-7.14v-11.69c0-1.06-.86-1.93-1.93-1.93h0c-1.06,0-1.93.86-1.93,1.93v11.69c0,6.07,4.92,11,11,11h11.69c1.06,0,1.93-.86,1.93-1.93h0c0-1.06-.86-1.93-1.93-1.93Z"/><path d="M19.62,27.38h-.03c-1.17-.22-1.87-1.42-1.46-2.54.91-2.5,3.05-6.46,7.78-8.5,4.08-1.76,8.74-1.49,12.61.65,1.01.56,1.27,1.92.56,2.83l-.02.03c-.57.75-1.6.96-2.42.51-2.83-1.56-6.23-1.76-9.2-.48-3.46,1.5-5.04,4.49-5.7,6.31-.31.86-1.22,1.35-2.12,1.19ZM47.03,32.08l-.25-3.91c-.02-.3-.07-1.11-2-4.13-.58-.91-1.8-1.15-2.69-.54l-.03.02c-.85.58-1.09,1.72-.55,2.59.5.79.97,1.58,1.24,2.1.12.24.19.49.21.76l.22,3.37c.15,2.31.26,3.95.32,5.09.05.99.84,1.77,1.83,1.81h.03c1.12.05,2.05-.87,1.99-1.99s-.16-2.78-.32-5.16ZM42.97,28.68h0ZM42.92,28.42h0s0,0,0,0ZM27.53,27.26c.64-.54,1.32-.87,1.92-1.07.83-.27,1.35-1.08,1.28-1.95v-.03c-.1-1.25-1.34-2.07-2.53-1.67-.99.33-2.11.88-3.17,1.77-1.37,1.16-2.19,2.52-2.68,3.69s.26,2.43,1.49,2.62h.03c.88.14,1.71-.35,2.05-1.17.29-.7.78-1.51,1.6-2.2ZM40.47,26.43c-1.59-2.35-3.72-3.59-5.37-4.22-1.13-.44-2.38.29-2.57,1.49v.02c-.15.9.37,1.76,1.22,2.1,1.09.42,2.49,1.24,3.53,2.78,1,1.47,1.26,2.99,1.27,4.12.01.92.64,1.71,1.54,1.89h.02c1.19.24,2.31-.66,2.29-1.88-.02-1.71-.4-4.04-1.93-6.3ZM41.96,43.03c.7-1.86.71-3.59.52-4.95-.18-1.24-1.46-1.98-2.62-1.51h-.02c-.84.35-1.29,1.22-1.17,2.11.11.83.1,1.87-.32,2.99-.37.99-.95,1.73-1.5,2.25-.62.6-.72,1.56-.28,2.3l.02.03c.63,1.06,2.09,1.27,2.97.41s1.79-2.05,2.39-3.64ZM33.63,47.26c.04-.97-.67-1.84-1.63-1.96-.46-.05-.93-.12-1.38-.21-.33-.06-.67-.13-1-.21-.96-.23-1.93.33-2.23,1.27v.03c-.36,1.07.3,2.21,1.4,2.47.38.09.75.17,1.13.24.5.09,1.01.17,1.52.23,1.13.14,2.15-.69,2.19-1.83v-.03ZM37.23,39.58c.26-.48.4-.74.13-6.62-.07-1.51-2.64-3.52-5.27-3.6-1.37-.05-2.47.4-2.99.67-.42.21-1.53.78-2.26,1.99-.41.67-.63,1.63-.56,4.53,0,.32.06,1.05.13,1.82.1,1.09,1.08,1.87,2.16,1.72h.03c1.01-.14,1.74-1.05,1.65-2.06-.06-.67-.11-1.32-.12-1.57-.04-1.65.03-2.31.07-2.54.18-.22.46-.36.65-.46.12-.06.55-.29,1.12-.25.69.02,1.25.37,1.57.62.06,1.42.09,2.61.1,3.42,0,.57-.23,1.1-.67,1.46-.26.22-.57.46-.87.68-.78.57-1.02,1.64-.54,2.48h0c.57,1.02,1.92,1.3,2.84.58,1.17-.92,2.39-2.07,2.83-2.87ZM30.21,33.82h0ZM22.04,46.27c-.47-.81-.91-1.61-1.16-2.14-.12-.24-.18-.5-.18-.77l-.1-3.43c-.07-2.29-.12-3.91-.14-5.04-.01-.99-.78-1.8-1.77-1.88h-.03c-1.12-.09-2.08.8-2.06,1.92s.07,2.79.14,5.11l.12,3.97c.02.74.64,2.14,1.84,4.18.55.93,1.77,1.23,2.68.65l.03-.02c.87-.55,1.15-1.68.63-2.57ZM26.14,41.03c-.12-.21-.24-.42-.33-.59-.14-.26-.21-.53-.23-.82l-.09-1.99c-.05-1.18-.1-2.11-.12-2.83-.04-.98-.81-1.77-1.79-1.83h-.03c-1.13-.07-2.07.84-2.03,1.97.03.72.07,1.65.12,2.87l.12,2.63c.01.26.03.79,1.03,2.53.55.95,1.79,1.25,2.71.65l.03-.02c.85-.55,1.12-1.68.61-2.56ZM25.61,40.26h0s0,0,0,0ZM25.56,39.92h0Z"/></svg>