<?xml version="1.0" encoding="UTF-8"?><svg id="a" xmlns="http://www.w3.org/2000/svg" width="64" height="64" viewBox="0 0 64 64"><rect x="1.49" y="8.32" width="61.22" height="47.82" rx="4.1" ry="4.1" fill="none" stroke="#000" stroke-miterlimit="10" stroke-width="2"/><g id="b"><ellipse cx="15.21" cy="23.95" rx="7.16" ry="7.21" fill="none" stroke="#231f20" stroke-miterlimit="10" stroke-width=".5"/><circle cx="15.19" cy="22.41" r="2.84" fill="none" stroke="#231f20" stroke-miterlimit="10" stroke-width=".5"/><path d="M10.61,29.48c1.05-1.49,2.78-2.47,4.75-2.47s3.58.91,4.64,2.31" fill="none" stroke="#231f20" stroke-miterlimit="10" stroke-width=".5"/></g><path d="M13.19,37.47l-.13,1.76,1.42-1.07.36.61-1.66.81,1.65.84-.35.6-1.43-1.09.16,1.79h-.7l.14-1.79-1.42,1.09-.34-.6,1.65-.83-1.66-.82.35-.59,1.41,1.05-.12-1.76h.67Z"/><path d="M17.73,37.47l-.13,1.76,1.42-1.07.36.61-1.66.81,1.65.84-.35.6-1.43-1.09.16,1.79h-.7l.14-1.79-1.42,1.09-.34-.6,1.65-.83-1.66-.82.35-.59,1.41,1.05-.12-1.76h.67Z"/><path d="M22.26,37.47l-.13,1.76,1.42-1.07.36.61-1.66.81,1.65.84-.35.6-1.43-1.09.16,1.79h-.7l.14-1.79-1.42,1.09-.34-.6,1.65-.83-1.66-.82.35-.59,1.41,1.05-.12-1.76h.67Z"/><path d="M26.79,37.47l-.13,1.76,1.42-1.07.36.61-1.66.81,1.65.84-.35.6-1.43-1.09.16,1.79h-.7l.14-1.79-1.42,1.09-.34-.6,1.65-.83-1.66-.82.35-.59,1.41,1.05-.12-1.76h.67Z"/><path d="M31.33,37.47l-.13,1.76,1.42-1.07.36.61-1.66.81,1.65.84-.35.6-1.43-1.09.16,1.79h-.7l.14-1.79-1.42,1.09-.34-.6,1.65-.83-1.66-.82.35-.59,1.41,1.05-.12-1.76h.67Z"/><path d="M35.86,37.47l-.13,1.76,1.42-1.07.36.61-1.66.81,1.65.84-.35.6-1.43-1.09.16,1.79h-.7l.14-1.79-1.42,1.09-.34-.6,1.65-.83-1.66-.82.35-.59,1.41,1.05-.12-1.76h.67Z"/><path d="M40.39,37.47l-.13,1.76,1.42-1.07.36.61-1.66.81,1.65.84-.35.6-1.43-1.09.16,1.79h-.7l.14-1.79-1.42,1.09-.34-.6,1.65-.83-1.66-.82.35-.59,1.41,1.05-.12-1.76h.67Z"/><path d="M44.93,37.47l-.13,1.76,1.42-1.07.36.61-1.66.81,1.65.84-.35.6-1.43-1.09.16,1.79h-.7l.14-1.79-1.42,1.09-.34-.6,1.65-.83-1.66-.82.35-.59,1.41,1.05-.12-1.76h.67Z"/></svg>