<?xml version="1.0" encoding="UTF-8"?><svg id="a" xmlns="http://www.w3.org/2000/svg" width="64" height="64" viewBox="0 0 64 64"><circle cx="32.41" cy="19.07" r="8.64" fill="none" stroke="#000" stroke-miterlimit="10" stroke-width="2"/><path d="M44.3,27.9c4.77,0,8.64-3.87,8.64-8.64s-3.87-8.64-8.64-8.64" fill="none" stroke="#000" stroke-miterlimit="10" stroke-width="2"/><path d="M14.11,54.83v-5.95c0-5.75,4.66-10.4,10.4-10.4h16.16c5.75,0,10.4,4.66,10.4,10.4v5.95" fill="none" stroke="#000" stroke-miterlimit="10" stroke-width="2"/><path d="M52.13,38.52c5.75,0,10.4,4.66,10.4,10.4v5.95" fill="none" stroke="#000" stroke-miterlimit="10" stroke-width="2"/><path d="M19.6,27.84c-4.77,0-8.64-3.87-8.64-8.64s3.87-8.64,8.64-8.64" fill="none" stroke="#000" stroke-miterlimit="10" stroke-width="2"/><path d="M11.77,38.47c-5.75,0-10.4,4.66-10.4,10.4v5.95" fill="none" stroke="#000" stroke-miterlimit="10" stroke-width="2"/></svg>