<?xml version="1.0" encoding="UTF-8"?><svg id="a" xmlns="http://www.w3.org/2000/svg" width="30cm" height="30cm" viewBox="0 0 850.39 850.39"><polyline points="483.76 320.68 455.45 334.02 450.68 377.24" fill="none" stroke="#231f20" stroke-miterlimit="10" stroke-width="2"/><polyline points="463.24 403.55 494.27 388.96 519.91 320.68" fill="none" stroke="#231f20" stroke-miterlimit="10" stroke-width="3"/><polyline points="449.07 460.8 434.39 440.42 443.73 303.99" fill="none" stroke="#231f20" stroke-miterlimit="10" stroke-width="2"/><polyline points="499.68 253.56 466.33 253.56 464.4 300.69" fill="none" stroke="#231f20" stroke-miterlimit="10"/><polyline points="470.44 374.49 488.04 367.72 516.61 279.09" fill="none" stroke="#231f20" stroke-miterlimit="10"/><polyline points="494.75 421.25 474.12 421.25 460.21 463.59" fill="none" stroke="#231f20" stroke-miterlimit="10"/><polyline points="550.18 320.19 537.78 294.9 538.91 250.52" fill="none" stroke="#231f20" stroke-miterlimit="10"/><polyline points="559.44 302.86 592.79 335.44 567.53 368.45" fill="none" stroke="#231f20" stroke-miterlimit="10" stroke-width="4"/><polyline points="486.07 438.89 508.71 447.56 542.61 403.55" fill="none" stroke="#231f20" stroke-miterlimit="10" stroke-width="2"/><polyline points="571.63 396.53 537.49 377.24 561.29 333.66" fill="none" stroke="#231f20" stroke-miterlimit="10"/><polyline points="564.15 405.32 530.53 388.6 508.71 425.59" fill="none" stroke="#231f20" stroke-miterlimit="10"/><polyline points="463.24 523.93 477.01 524.3 601.12 400.82" fill="none" stroke="#231f20" stroke-miterlimit="10"/><polyline points="680.23 379.66 644.34 335.23 530.51 460.16" fill="none" stroke="#231f20" stroke-miterlimit="10"/><line x1="673.08" y1="384.5" x2="651.71" y2="362.12" fill="none" stroke="#231f20" stroke-miterlimit="10" stroke-width="2"/><polyline points="629.29 419.27 611.93 401.42 639.38 374.63 652.23 385.48 633.99 399.53" fill="none" stroke="#231f20" stroke-miterlimit="10" stroke-width="2"/><polyline points="686.97 377.66 701.63 404 560.68 485.44" fill="none" stroke="#231f20" stroke-miterlimit="10" stroke-width="2"/><polyline points="680.09 384.5 688.9 398.08 611.93 447.56" fill="none" stroke="#231f20" stroke-miterlimit="10"/><polyline points="718.6 447.56 734.35 484.92 672.77 501.8" fill="none" stroke="#231f20" stroke-miterlimit="10" stroke-width="4"/><polyline points="480.37 553.17 502.15 555.18 652.23 508.29 653.01 521.98 742.04 501.8" fill="none" stroke="#231f20" stroke-miterlimit="10" stroke-width="2"/><polyline points="498 565.25 526.54 572.69 632.84 565.33" fill="none" stroke="#231f20" stroke-miterlimit="10" stroke-width="4"/><polyline points="550.18 554.64 565.6 559.13 755.77 524.3 761.06 559.92 675.93 564.78" fill="none" stroke="#231f20" stroke-miterlimit="10" stroke-width="2"/><polyline points="419.65 581.17 333.88 237.81 306.76 358.48" fill="none" stroke="#231f20" stroke-miterlimit="10" stroke-width="5"/><polyline points="419.65 581.44 259.3 264.73 265.25 394.91" fill="none" stroke="#231f20" stroke-miterlimit="10" stroke-width="5"/><polyline points="419.65 581.44 194.99 310.03 222.01 431.01" fill="none" stroke="#231f20" stroke-miterlimit="10" stroke-width="5"/><polyline points="419.65 581.44 141.02 369.36 200.13 484.83" fill="none" stroke="#231f20" stroke-miterlimit="10" stroke-width="5"/><polyline points="419.65 581.44 98.69 440.18 183.92 532.96" fill="none" stroke="#231f20" stroke-miterlimit="10" stroke-width="5"/><polyline points="419.65 581.44 76.42 510.86 194.99 588.88" fill="none" stroke="#231f20" stroke-miterlimit="10" stroke-width="5"/><line x1="419.29" y1="581.17" x2="505.05" y2="223.69" fill="none" stroke="#231f20" stroke-miterlimit="10" stroke-width="5"/><line x1="419.29" y1="581.17" x2="583.9" y2="251.78" fill="none" stroke="#231f20" stroke-miterlimit="10" stroke-width="5"/><line x1="419.29" y1="581.17" x2="655" y2="296.85" fill="none" stroke="#231f20" stroke-miterlimit="10" stroke-width="5"/><line x1="419.29" y1="581.17" x2="715.32" y2="356.42" fill="none" stroke="#231f20" stroke-miterlimit="10" stroke-width="5"/><line x1="419.29" y1="581.17" x2="759.97" y2="427.32" fill="none" stroke="#231f20" stroke-miterlimit="10" stroke-width="5"/><line x1="419.29" y1="581.17" x2="788.61" y2="506.48" fill="none" stroke="#231f20" stroke-miterlimit="10" stroke-width="5"/><line x1="418.47" y1="206.51" x2="420.1" y2="584.04" fill="none" stroke="#231f20" stroke-miterlimit="10" stroke-width="5"/><line x1="387.28" y1="581.44" x2="448.26" y2="581.17" fill="#fff" stroke="#231f20" stroke-miterlimit="10" stroke-width="6"/><path d="M11.91,577.76v35.64l372.34,1.05c.85,8.61,7.49,30.24,35.03,29.65,32.86-.71,35.41-25.92,35.06-29.65l384.93-1.08v-35.61h-401.43c2.5,20.06-3.12,36.97-18.2,36.69-19.39-.36-19.85-28.15-17.88-36.69H11.91Z" fill="#231f20"/><circle cx="506.5" cy="225.14" r="16.21" fill="#231f20" stroke="#231f20" stroke-miterlimit="10" stroke-width=".25"/><circle cx="464.4" cy="302.78" r="6.77" fill="#231f20"/><circle cx="444.07" cy="300.69" r="6.22" fill="#231f20"/><circle cx="450.98" cy="375.67" r="5.46" fill="#231f20"/><circle cx="432.36" cy="461.5" r="5.55" fill="#231f20"/><circle cx="460.21" cy="465.14" r="5.22" fill="#231f20"/><circle cx="522.7" cy="312.66" r="9.88" fill="none" stroke="#231f20" stroke-miterlimit="10" stroke-width="3"/><circle cx="517.03" cy="277.13" r="4.21" fill="#231f20"/><circle cx="538.91" cy="249.56" r="3.42" fill="#231f20"/><circle cx="498.56" cy="460.12" r="6.68" fill="none" stroke="#231f20" stroke-miterlimit="10" stroke-width="3"/><circle cx="540.83" cy="405.48" r="4.51" fill="#231f20"/><circle cx="562.31" cy="372.38" r="7.28" fill="none" stroke="#231f20" stroke-miterlimit="10" stroke-width="4"/><circle cx="561.64" cy="333.34" r="3.65" fill="#231f20"/><circle cx="508.71" cy="425.59" r="3.65" fill="#231f20"/><ellipse cx="647.89" cy="357.03" rx="5.45" ry="5.4" fill="none" stroke="#231f20" stroke-miterlimit="10" stroke-width="2"/><circle cx="601.12" cy="400.82" r="3.8" fill="#231f20"/><circle cx="530.51" cy="460.16" r="3.91" fill="#231f20"/><circle cx="635.44" cy="398.08" r="7.12" fill="#231f20"/><circle cx="611.93" cy="447.56" r="3.06" fill="#231f20"/><circle cx="559.77" cy="487.12" r="3.14" fill="none" stroke="#231f20" stroke-miterlimit="10" stroke-width="2"/><circle cx="673.08" cy="503.58" r="7.14" fill="#231f20"/><circle cx="738.83" cy="501.8" r="4.58" fill="#231f20"/><circle cx="604.41" cy="510.95" r="3.81" fill="#231f20"/><circle cx="702.78" cy="470.38" r="6.87" fill="none" stroke="#231f20" stroke-miterlimit="10" stroke-width="4"/><circle cx="736.52" cy="543.83" r="9.71" fill="#231f20"/><circle cx="672.77" cy="565.21" r="6.63" fill="#231f20"/><circle cx="628.32" cy="564.78" r="6.71" fill="#231f20"/><circle cx="777.27" cy="507.93" r="16.21" fill="#231f20" stroke="#231f20" stroke-miterlimit="10" stroke-width=".25"/><circle cx="747.79" cy="434.57" r="16.21" fill="#231f20" stroke="#231f20" stroke-miterlimit="10" stroke-width=".25"/><circle cx="703.84" cy="364.28" r="16.21" fill="#231f20" stroke="#231f20" stroke-miterlimit="10" stroke-width=".25"/><circle cx="649.68" cy="302.65" r="16.21" fill="#231f20" stroke="#231f20" stroke-miterlimit="10" stroke-width=".25"/><circle cx="580.81" cy="257.58" r="16.21" fill="#231f20" stroke="#231f20" stroke-miterlimit="10" stroke-width=".25"/><polyline points="576.03 508.94 576.03 492.92 696.44 429.56" fill="none" stroke="#231f20" stroke-miterlimit="10" stroke-width="3"/><circle cx="701.71" cy="425.87" r="8.41" fill="none" stroke="#231f20" stroke-miterlimit="10" stroke-width="3"/><polyline points="618.61 339.89 595.57 318.46 603.53 286.59" fill="none" stroke="#231f20" stroke-miterlimit="10" stroke-width="3"/><circle cx="603.11" cy="290" r="7.55" fill="#231f20"/><polyline points="660.68 472.16 650.09 490.38 604.41 510.95" fill="none" stroke="#231f20" stroke-miterlimit="10"/><path d="M222.64,555.36c-1.24-2.68-3.94-3.78-6.81-3.73-3.2.06-6.06,2.28-6.96,5.48v15.65s3.44,0,3.44,0v-13.35c.25-2.1,1.87-3.77,3.93-4.09,1.87-.3,3.75.6,4.73,2.21.06.11.12,1.31.18,1.42v13.81s15.88,0,15.88,0v-17.12c-1.05-3-3.8-5.05-6.88-5.16-3.39-.12-6.5,1.52-7.52,4.88ZM234.1,558.12v11.79s-9.83,0-9.83,0v-12.18c.81-2,2.78-3.3,4.91-3.27,2.23.03,4.21,1.5,4.91,3.66Z" fill="#231f20"/><path d="M226.64,507.36c-7.09,0-12.84,5.74-12.84,12.81s5.75,12.81,12.84,12.81,12.84-5.74,12.84-12.81-5.75-12.81-12.84-12.81ZM226.64,530.18c-5.54,0-10.03-4.48-10.03-10.01s4.49-10.01,10.03-10.01,10.03,4.48,10.03,10.01-4.49,10.01-10.03,10.01Z" fill="#231f20"/><polygon points="336.18 386.37 333.21 387.26 329.02 373.26 331.99 372.37 356.55 390.81 349.47 367.14 352.52 366.23 361.1 394.9 358.05 395.82 333.59 377.72 336.18 386.37" fill="#231f20"/><path d="M225.73,481.87l6.18-13.44c3.01-3.27,7.72-4.41,11.89-2.87,4.19,1.55,7.03,5.51,7.15,9.98l10.54-1.85-1.53,3.33-10.49,1.74-4.07,8.86,8,3.68-1.25,2.71-10.71-4.92,6.32-13.76c-.22-3.03-2.12-5.67-4.87-6.76-3.05-1.21-6.61-.32-8.82,2.24l-5.65,12.3-2.68-1.23Z" fill="#231f20"/><polygon points="262.05 419.07 265.3 416.05 288.88 441.46 285.63 444.47 275.67 433.74 262.97 445.53 260.14 442.48 272.84 430.69 262.05 419.07" fill="#231f20"/><polygon points="301.05 421.48 297.84 423.35 294.35 392.74 297.37 390.97 322.55 408.89 319.62 410.6 313.41 406.26 306.81 410.13 305.38 407.68 310.56 404.64 298.31 395.61 301.05 421.48" fill="#231f20"/></svg>